<?xml version="1.0" encoding="utf-8"?>
<!-- Generator: Adobe Illustrator 27.5.0, SVG Export Plug-In . SVG Version: 6.00 Build 0)  -->
<svg version="1.1" xmlns="http://www.w3.org/2000/svg" xmlns:xlink="http://www.w3.org/1999/xlink" x="0px" y="0px"
	 viewBox="0 0 500 500" style="enable-background:new 0 0 500 500;" xml:space="preserve">
<g id="Background_Complete">
	<g>
		<rect y="382.398" style="fill:#EBEBEB;" width="500" height="0.25"/>
		<rect x="416.779" y="398.494" style="fill:#EBEBEB;" width="33.122" height="0.25"/>
		<rect x="322.527" y="401.208" style="fill:#EBEBEB;" width="8.693" height="0.25"/>
		<rect x="396.586" y="389.208" style="fill:#EBEBEB;" width="19.192" height="0.25"/>
		<rect x="52.459" y="390.888" style="fill:#EBEBEB;" width="43.193" height="0.25"/>
		<rect x="104.556" y="390.888" style="fill:#EBEBEB;" width="6.333" height="0.25"/>
		<rect x="131.471" y="395.111" style="fill:#EBEBEB;" width="93.676" height="0.25"/>
		<path style="fill:#EBEBEB;" d="M237.014,337.8H43.915c-3.147,0-5.708-2.561-5.708-5.708V60.66c0-3.147,2.561-5.708,5.708-5.708
			h193.099c3.146,0,5.707,2.561,5.707,5.708v271.432C242.721,335.239,240.16,337.8,237.014,337.8z M43.915,55.203
			c-3.01,0-5.458,2.448-5.458,5.458v271.432c0,3.01,2.448,5.458,5.458,5.458h193.099c3.009,0,5.457-2.448,5.457-5.458V60.66
			c0-3.009-2.448-5.458-5.457-5.458H43.915z"/>
		<path style="fill:#EBEBEB;" d="M453.31,337.8H260.212c-3.147,0-5.707-2.561-5.707-5.708V60.66c0-3.147,2.561-5.708,5.707-5.708
			H453.31c3.148,0,5.708,2.561,5.708,5.708v271.432C459.019,335.239,456.458,337.8,453.31,337.8z M260.212,55.203
			c-3.009,0-5.457,2.448-5.457,5.458v271.432c0,3.01,2.448,5.458,5.457,5.458H453.31c3.01,0,5.458-2.448,5.458-5.458V60.66
			c0-3.009-2.448-5.458-5.458-5.458H260.212z"/>
	</g>
	<g>
		<path style="fill:#F5F5F5;" d="M298.831,94.166c0-2.668-2.163-4.83-4.83-4.83c-0.482,0-0.947,0.073-1.387,0.204
			c0.07-0.484,0.108-0.979,0.108-1.483c0-5.649-4.58-10.229-10.229-10.229c-0.644,0-1.273,0.062-1.884,0.176
			c-1.572-2.573-4.399-4.296-7.634-4.296c-4.898,0-8.871,3.935-8.944,8.816c-0.05-0.001-0.099-0.007-0.149-0.007
			c-4.551,0-8.24,3.689-8.24,8.24c0,4.551,3.689,8.24,8.24,8.24h30.261l-0.006-0.007C296.741,98.917,298.831,96.788,298.831,94.166z
			"/>
		<path style="fill:#F5F5F5;" d="M230.734,119.022c0-1.334-1.081-2.415-2.415-2.415c-0.241,0-0.474,0.036-0.693,0.102
			c0.035-0.242,0.054-0.49,0.054-0.742c0-2.825-2.29-5.115-5.115-5.115c-0.322,0-0.637,0.031-0.942,0.088
			c-0.786-1.286-2.199-2.148-3.817-2.148c-2.449,0-4.435,1.968-4.472,4.408c-0.025,0-0.049-0.004-0.074-0.004
			c-2.275,0-4.12,1.844-4.12,4.12c0,2.275,1.844,4.12,4.12,4.12h15.13l-0.003-0.003
			C229.689,121.398,230.734,120.333,230.734,119.022z"/>
		<path style="fill:#F5F5F5;" d="M94.364,200.241c0-1.334-1.081-2.415-2.415-2.415c-0.241,0-0.474,0.036-0.694,0.102
			c0.035-0.242,0.054-0.49,0.054-0.742c0-2.825-2.29-5.115-5.115-5.115c-0.322,0-0.637,0.031-0.942,0.088
			c-0.786-1.286-2.199-2.148-3.817-2.148c-2.449,0-4.435,1.968-4.472,4.408c-0.025,0-0.049-0.004-0.075-0.004
			c-2.275,0-4.12,1.844-4.12,4.12c0,2.275,1.844,4.12,4.12,4.12h15.13l-0.003-0.003C93.319,202.617,94.364,201.552,94.364,200.241z"
			/>
		<path style="fill:#F5F5F5;" d="M420.556,201.218c0-1.334-1.081-2.415-2.415-2.415c-0.241,0-0.474,0.036-0.694,0.102
			c0.035-0.242,0.054-0.49,0.054-0.742c0-2.825-2.29-5.114-5.115-5.114c-0.322,0-0.637,0.031-0.942,0.088
			c-0.786-1.286-2.199-2.148-3.817-2.148c-2.449,0-4.435,1.968-4.472,4.408c-0.025-0.001-0.049-0.004-0.075-0.004
			c-2.275,0-4.12,1.845-4.12,4.12c0,2.275,1.844,4.12,4.12,4.12h15.13l-0.003-0.004C419.51,203.594,420.556,202.529,420.556,201.218
			z"/>
		<path style="fill:#F5F5F5;" d="M166.277,94.393c0-1.749-1.418-3.167-3.167-3.167c-0.316,0-0.621,0.048-0.909,0.134
			c0.046-0.318,0.071-0.642,0.071-0.972c0-3.704-3.003-6.707-6.707-6.707c-0.422,0-0.835,0.041-1.235,0.116
			c-1.031-1.687-2.884-2.817-5.005-2.817c-3.211,0-5.816,2.58-5.864,5.78c-0.033-0.001-0.065-0.005-0.098-0.005
			c-2.984,0-5.403,2.419-5.403,5.403c0,2.984,2.419,5.403,5.403,5.403h19.84l-0.004-0.004
			C164.906,97.508,166.277,96.112,166.277,94.393z"/>
		<g>
			<path style="fill:#F5F5F5;" d="M402.964,170.365c0.152-0.551,0.243-1.182,0.284-1.878c0.231-3.894,3.949-3.277,7.112-3.806
				c2.471-0.413-4.072-6.655,0.91-8.669c0.925-0.374,1.931-0.797,2.404-1.676c0.626-1.162-0.007-2.692-1.085-3.455
				c-1.078-0.762-2.463-0.924-3.783-0.948c-0.813-0.988-0.152-2.475,0.635-3.484c0.786-1.009,1.75-2.157,1.452-3.401
				c-0.45-1.878-3.075-1.946-4.972-1.581c-0.701-1.135-0.687-2.554-1.027-3.844c-0.34-1.29-1.366-2.644-2.69-2.482
				c-1.247,0.152-2.01,1.561-3.233,1.849c-1.421,0.335-2.651-0.922-3.765-1.864c-1.114-0.943-3.063-1.531-3.831-0.289
				c-0.46,0.743-0.184,1.779-0.662,2.511c-0.828,1.268-2.79,0.481-4.009-0.418c-1.219-0.899-3.16-1.714-4.017-0.465
				c-0.263,0.382-0.32,0.864-0.472,1.303c-0.577,1.664-2.375,2.492-3.775,3.559c-1.401,1.067-2.51,3.189-1.325,4.491
				c0.585,0.642,1.613,0.903,1.904,1.721c0.363,1.023-0.682,1.94-1.509,2.643c-1.377,1.171-1.626,4.675,0.194,5.633
				c0.764,0.402,1.885,0.526,2.072,1.369c0.168,0.754-0.597,1.34-1.105,1.921c-1.396,1.596-0.805,4.469,1.107,5.386
				c0.437,0.209,0.974,0.381,1.136,0.838c0.116,0.327-0.011,0.683-0.104,1.017c-0.177,0.632-0.237,1.297-0.175,1.95
				c0.021,0.223,0.067,0.466,0.237,0.612c0.155,0.133,0.373,0.153,0.577,0.163c2.629,0.117,3.896-0.813,5.501,1.474
				c0.154,0.22,0.316,0.446,0.547,0.581c0.217,0.126,0.475,0.16,0.725,0.181c1.807,0.149,2.988-0.979,4.639-1.189
				c2.291-0.292,2.776,0.889,4.795,1.838C400.829,173.448,402.368,172.528,402.964,170.365z"/>
			<path style="fill:#F5F5F5;" d="M372.693,167.094c0.152-0.551,0.243-1.182,0.284-1.878c0.231-3.895,3.949-3.277,7.112-3.806
				c2.471-0.413-4.072-6.655,0.91-8.669c0.925-0.374,1.931-0.797,2.404-1.676c0.626-1.162-0.007-2.692-1.085-3.454
				c-1.078-0.762-2.463-0.924-3.783-0.949c-0.813-0.988-0.152-2.475,0.635-3.484c0.786-1.009,1.75-2.157,1.452-3.401
				c-0.45-1.878-3.075-1.946-4.972-1.581c-0.701-1.135-0.687-2.554-1.027-3.844c-0.34-1.29-1.366-2.644-2.69-2.482
				c-1.248,0.152-2.01,1.56-3.233,1.849c-1.421,0.335-2.651-0.922-3.765-1.864c-1.114-0.943-3.063-1.531-3.831-0.289
				c-0.46,0.743-0.184,1.779-0.662,2.511c-0.828,1.268-2.791,0.481-4.009-0.418c-1.219-0.899-3.16-1.714-4.017-0.465
				c-0.263,0.382-0.32,0.864-0.472,1.303c-0.577,1.664-2.375,2.492-3.776,3.559c-1.4,1.067-2.51,3.189-1.325,4.491
				c0.585,0.642,1.613,0.903,1.904,1.721c0.363,1.023-0.682,1.939-1.509,2.643c-1.377,1.171-1.626,4.675,0.194,5.633
				c0.764,0.402,1.885,0.526,2.072,1.369c0.168,0.754-0.597,1.34-1.105,1.921c-1.396,1.596-0.805,4.47,1.107,5.386
				c0.437,0.209,0.974,0.381,1.136,0.838c0.116,0.327-0.011,0.683-0.104,1.017c-0.177,0.632-0.237,1.297-0.175,1.95
				c0.021,0.224,0.067,0.466,0.237,0.612c0.155,0.133,0.373,0.153,0.577,0.162c2.629,0.117,3.896-0.813,5.501,1.474
				c0.154,0.22,0.315,0.446,0.547,0.581c0.217,0.126,0.475,0.16,0.725,0.181c1.807,0.149,2.988-0.979,4.639-1.189
				c2.291-0.292,2.777,0.889,4.795,1.838C370.558,170.177,372.097,169.257,372.693,167.094z"/>
			<path style="fill:#F5F5F5;" d="M369.776,147.817c0.152-0.551,0.243-1.182,0.284-1.878c0.231-3.895,3.949-3.277,7.112-3.806
				c2.471-0.413-4.072-6.655,0.91-8.669c0.925-0.374,1.931-0.797,2.404-1.676c0.626-1.162-0.007-2.692-1.085-3.454
				c-1.078-0.762-2.463-0.924-3.783-0.949c-0.813-0.988-0.152-2.475,0.635-3.484c0.786-1.009,1.75-2.157,1.452-3.401
				c-0.45-1.879-3.075-1.946-4.972-1.581c-0.701-1.135-0.687-2.554-1.027-3.844c-0.34-1.29-1.366-2.644-2.69-2.482
				c-1.247,0.152-2.01,1.561-3.233,1.849c-1.421,0.335-2.651-0.922-3.765-1.864c-1.115-0.943-3.063-1.531-3.831-0.289
				c-0.46,0.743-0.184,1.779-0.662,2.511c-0.828,1.268-2.79,0.481-4.009-0.418c-1.219-0.899-3.16-1.714-4.017-0.465
				c-0.263,0.382-0.32,0.864-0.472,1.303c-0.577,1.664-2.375,2.492-3.775,3.559c-1.401,1.067-2.51,3.189-1.325,4.491
				c0.585,0.642,1.613,0.903,1.904,1.721c0.363,1.023-0.682,1.94-1.509,2.643c-1.377,1.171-1.626,4.675,0.194,5.633
				c0.764,0.402,1.885,0.526,2.072,1.369c0.168,0.754-0.597,1.34-1.105,1.921c-1.396,1.596-0.805,4.469,1.107,5.385
				c0.437,0.209,0.974,0.381,1.136,0.838c0.116,0.327-0.011,0.683-0.104,1.017c-0.177,0.632-0.237,1.297-0.175,1.95
				c0.021,0.224,0.067,0.466,0.237,0.612c0.155,0.133,0.373,0.153,0.577,0.162c2.628,0.117,3.896-0.813,5.501,1.474
				c0.154,0.22,0.316,0.446,0.547,0.581c0.217,0.126,0.475,0.16,0.725,0.181c1.807,0.149,2.988-0.979,4.639-1.189
				c2.291-0.292,2.776,0.889,4.795,1.838C367.641,150.899,369.18,149.98,369.776,147.817z"/>
			<path style="fill:#F5F5F5;" d="M349.836,157.419c0.152-0.551,0.242-1.182,0.284-1.878c0.231-3.894,3.949-3.277,7.112-3.806
				c2.471-0.413-4.072-6.655,0.91-8.669c0.925-0.374,1.931-0.797,2.404-1.676c0.626-1.162-0.007-2.692-1.085-3.454
				c-1.078-0.762-2.463-0.924-3.783-0.949c-0.813-0.988-0.152-2.475,0.635-3.484s1.75-2.157,1.452-3.401
				c-0.45-1.878-3.075-1.946-4.972-1.581c-0.701-1.135-0.687-2.554-1.027-3.844c-0.34-1.29-1.366-2.644-2.69-2.482
				c-1.247,0.152-2.01,1.56-3.233,1.849c-1.421,0.335-2.651-0.921-3.765-1.864c-1.114-0.942-3.063-1.531-3.831-0.289
				c-0.46,0.743-0.184,1.779-0.662,2.511c-0.828,1.268-2.79,0.481-4.009-0.418c-1.219-0.899-3.16-1.714-4.017-0.465
				c-0.263,0.382-0.32,0.864-0.472,1.303c-0.577,1.664-2.375,2.492-3.776,3.559c-1.401,1.067-2.51,3.189-1.325,4.491
				c0.585,0.642,1.613,0.903,1.904,1.721c0.363,1.023-0.682,1.939-1.509,2.643c-1.377,1.171-1.626,4.675,0.194,5.633
				c0.764,0.402,1.885,0.526,2.072,1.369c0.167,0.754-0.597,1.34-1.105,1.921c-1.396,1.596-0.805,4.469,1.107,5.386
				c0.437,0.209,0.974,0.381,1.136,0.838c0.116,0.327-0.011,0.683-0.104,1.017c-0.177,0.632-0.237,1.297-0.175,1.95
				c0.021,0.223,0.067,0.466,0.237,0.612c0.155,0.133,0.373,0.153,0.577,0.163c2.628,0.117,3.896-0.813,5.501,1.474
				c0.154,0.22,0.315,0.446,0.547,0.581c0.217,0.126,0.475,0.16,0.725,0.181c1.807,0.149,2.988-0.979,4.639-1.189
				c2.291-0.292,2.777,0.889,4.795,1.838C347.701,160.501,349.239,159.582,349.836,157.419z"/>
			<path style="fill:#F5F5F5;" d="M329.682,152.984c0.152-0.551,0.242-1.182,0.284-1.878c0.231-3.894,3.949-3.277,7.112-3.806
				c2.471-0.413-4.072-6.655,0.91-8.669c0.925-0.374,1.931-0.797,2.404-1.676c0.626-1.162-0.007-2.692-1.085-3.454
				c-1.078-0.762-2.463-0.924-3.783-0.949c-0.813-0.988-0.152-2.475,0.635-3.484c0.786-1.009,1.75-2.157,1.452-3.401
				c-0.45-1.879-3.075-1.946-4.972-1.581c-0.701-1.135-0.687-2.554-1.027-3.844c-0.34-1.29-1.366-2.644-2.69-2.482
				c-1.247,0.152-2.01,1.56-3.233,1.849c-1.421,0.335-2.651-0.922-3.765-1.864c-1.114-0.942-3.063-1.531-3.831-0.289
				c-0.46,0.743-0.184,1.779-0.662,2.511c-0.828,1.268-2.79,0.481-4.009-0.418c-1.219-0.899-3.16-1.714-4.017-0.465
				c-0.263,0.382-0.32,0.864-0.472,1.303c-0.577,1.664-2.375,2.492-3.776,3.559c-1.401,1.067-2.51,3.189-1.325,4.491
				c0.585,0.642,1.613,0.903,1.904,1.721c0.363,1.023-0.682,1.939-1.509,2.643c-1.377,1.171-1.626,4.675,0.194,5.633
				c0.764,0.402,1.885,0.526,2.072,1.369c0.168,0.754-0.597,1.34-1.105,1.921c-1.395,1.596-0.805,4.47,1.107,5.386
				c0.437,0.209,0.974,0.381,1.136,0.838c0.116,0.327-0.011,0.683-0.104,1.017c-0.178,0.632-0.237,1.297-0.175,1.95
				c0.021,0.224,0.067,0.466,0.237,0.612c0.154,0.133,0.373,0.153,0.577,0.163c2.629,0.117,3.896-0.813,5.501,1.474
				c0.154,0.22,0.316,0.446,0.548,0.581c0.217,0.126,0.475,0.16,0.725,0.181c1.807,0.149,2.988-0.979,4.639-1.189
				c2.291-0.292,2.776,0.889,4.795,1.838C327.547,156.066,329.086,155.147,329.682,152.984z"/>
			<path style="fill:#F5F5F5;" d="M329.419,174.542c0.12-0.434,0.191-0.931,0.223-1.478c0.182-3.066,3.11-2.58,5.6-2.997
				c1.946-0.325-3.206-5.24,0.717-6.826c0.729-0.294,1.521-0.627,1.893-1.32c0.493-0.915-0.006-2.12-0.854-2.72
				c-0.849-0.6-1.939-0.727-2.979-0.747c-0.64-0.778-0.119-1.949,0.5-2.743c0.619-0.795,1.378-1.698,1.143-2.678
				c-0.354-1.479-2.422-1.532-3.915-1.245c-0.552-0.894-0.541-2.011-0.809-3.027c-0.268-1.016-1.076-2.082-2.118-1.955
				c-0.982,0.12-1.583,1.229-2.546,1.456c-1.119,0.264-2.087-0.726-2.965-1.468c-0.877-0.742-2.412-1.205-3.016-0.228
				c-0.362,0.585-0.145,1.401-0.521,1.977c-0.652,0.999-2.197,0.379-3.157-0.329s-2.488-1.35-3.163-0.367
				c-0.207,0.301-0.252,0.68-0.372,1.026c-0.454,1.31-1.87,1.962-2.973,2.803c-1.103,0.84-1.977,2.511-1.043,3.536
				c0.461,0.506,1.27,0.711,1.499,1.355c0.286,0.805-0.537,1.527-1.188,2.081c-1.084,0.922-1.28,3.681,0.153,4.435
				c0.602,0.317,1.484,0.414,1.632,1.078c0.132,0.593-0.47,1.055-0.87,1.513c-1.099,1.257-0.634,3.519,0.872,4.24
				c0.344,0.165,0.767,0.3,0.894,0.66c0.091,0.257-0.008,0.538-0.082,0.801c-0.14,0.498-0.187,1.021-0.138,1.536
				c0.017,0.176,0.053,0.367,0.187,0.482c0.122,0.104,0.294,0.121,0.454,0.128c2.07,0.092,3.068-0.64,4.331,1.161
				c0.121,0.173,0.248,0.351,0.431,0.458c0.171,0.1,0.374,0.126,0.571,0.142c1.423,0.117,2.353-0.771,3.653-0.936
				c1.804-0.23,2.186,0.7,3.775,1.447C327.738,176.969,328.95,176.245,329.419,174.542z"/>
			<path style="fill:#F5F5F5;" d="M318.127,167.094c0.152-0.551,0.242-1.182,0.284-1.878c0.231-3.895,3.949-3.277,7.112-3.806
				c2.471-0.413-4.072-6.655,0.91-8.669c0.925-0.374,1.931-0.797,2.404-1.676c0.626-1.162-0.007-2.692-1.085-3.454
				c-1.078-0.762-2.463-0.924-3.783-0.949c-0.813-0.988-0.152-2.475,0.635-3.484c0.786-1.009,1.75-2.157,1.451-3.401
				c-0.45-1.878-3.075-1.946-4.972-1.581c-0.701-1.135-0.687-2.554-1.027-3.844c-0.34-1.29-1.366-2.644-2.69-2.482
				c-1.247,0.152-2.01,1.56-3.233,1.849c-1.421,0.335-2.651-0.922-3.765-1.864c-1.114-0.943-3.063-1.531-3.831-0.289
				c-0.46,0.743-0.184,1.779-0.662,2.511c-0.828,1.268-2.79,0.481-4.009-0.418s-3.16-1.714-4.017-0.465
				c-0.263,0.382-0.32,0.864-0.472,1.303c-0.577,1.664-2.375,2.492-3.776,3.559s-2.51,3.189-1.325,4.491
				c0.585,0.642,1.613,0.903,1.904,1.721c0.363,1.023-0.682,1.939-1.509,2.643c-1.377,1.171-1.626,4.675,0.194,5.633
				c0.764,0.402,1.885,0.526,2.072,1.369c0.168,0.754-0.597,1.34-1.105,1.921c-1.396,1.596-0.805,4.47,1.107,5.386
				c0.437,0.209,0.974,0.381,1.136,0.838c0.116,0.327-0.011,0.683-0.104,1.017c-0.178,0.632-0.237,1.297-0.175,1.95
				c0.021,0.224,0.067,0.466,0.237,0.612c0.154,0.133,0.373,0.153,0.577,0.162c2.629,0.117,3.896-0.813,5.501,1.474
				c0.154,0.22,0.315,0.446,0.547,0.581c0.217,0.126,0.475,0.16,0.725,0.181c1.807,0.149,2.988-0.979,4.639-1.189
				c2.291-0.292,2.776,0.889,4.795,1.838C315.992,170.177,317.531,169.257,318.127,167.094z"/>
			<path style="fill:#F5F5F5;" d="M349.836,133.706c0.152-0.551,0.242-1.182,0.284-1.878c0.231-3.894,3.949-3.277,7.112-3.806
				c2.471-0.413-4.072-6.655,0.91-8.669c0.925-0.374,1.931-0.797,2.404-1.676c0.626-1.162-0.007-2.692-1.085-3.454
				c-1.078-0.762-2.463-0.924-3.783-0.949c-0.813-0.988-0.152-2.475,0.635-3.484c0.786-1.009,1.75-2.157,1.452-3.401
				c-0.45-1.878-3.075-1.946-4.972-1.581c-0.701-1.135-0.687-2.554-1.027-3.844c-0.34-1.29-1.366-2.644-2.69-2.482
				c-1.247,0.152-2.01,1.56-3.233,1.849c-1.421,0.335-2.651-0.921-3.765-1.864c-1.114-0.942-3.063-1.531-3.831-0.289
				c-0.46,0.743-0.184,1.779-0.662,2.511c-0.828,1.268-2.79,0.481-4.009-0.418c-1.219-0.899-3.16-1.714-4.017-0.465
				c-0.263,0.382-0.32,0.864-0.472,1.303c-0.577,1.664-2.375,2.492-3.776,3.559c-1.401,1.067-2.51,3.189-1.325,4.491
				c0.585,0.642,1.613,0.903,1.904,1.721c0.363,1.023-0.682,1.939-1.509,2.643c-1.377,1.171-1.626,4.675,0.194,5.633
				c0.764,0.402,1.885,0.526,2.072,1.369c0.167,0.754-0.597,1.34-1.105,1.921c-1.396,1.596-0.805,4.47,1.107,5.386
				c0.437,0.209,0.974,0.381,1.136,0.838c0.116,0.327-0.011,0.683-0.104,1.017c-0.177,0.632-0.237,1.297-0.175,1.95
				c0.021,0.224,0.067,0.466,0.237,0.612c0.155,0.133,0.373,0.153,0.577,0.163c2.628,0.117,3.896-0.813,5.501,1.474
				c0.154,0.22,0.315,0.446,0.547,0.581c0.217,0.126,0.475,0.16,0.725,0.181c1.807,0.149,2.988-0.979,4.639-1.189
				c2.291-0.292,2.777,0.889,4.795,1.838C347.701,136.789,349.239,135.869,349.836,133.706z"/>
			<path style="fill:#F5F5F5;" d="M375.726,135.03c0.152-0.551,0.243-1.182,0.284-1.878c0.231-3.894,3.949-3.277,7.112-3.806
				c2.471-0.413-4.072-6.655,0.91-8.669c0.925-0.374,1.931-0.797,2.404-1.676c0.626-1.162-0.007-2.692-1.085-3.454
				c-1.078-0.762-2.463-0.924-3.783-0.948c-0.813-0.988-0.152-2.475,0.635-3.484c0.786-1.009,1.75-2.157,1.452-3.401
				c-0.45-1.879-3.075-1.946-4.972-1.581c-0.701-1.135-0.687-2.554-1.027-3.844c-0.34-1.29-1.366-2.644-2.69-2.482
				c-1.247,0.152-2.01,1.561-3.233,1.849c-1.421,0.335-2.651-0.922-3.765-1.864c-1.114-0.942-3.063-1.531-3.831-0.289
				c-0.46,0.743-0.184,1.779-0.662,2.511c-0.828,1.268-2.79,0.481-4.009-0.418c-1.219-0.899-3.16-1.714-4.017-0.465
				c-0.263,0.382-0.32,0.864-0.472,1.303c-0.577,1.664-2.375,2.492-3.775,3.559c-1.401,1.067-2.51,3.189-1.325,4.491
				c0.585,0.642,1.613,0.903,1.904,1.721c0.363,1.023-0.682,1.94-1.509,2.643c-1.377,1.171-1.626,4.675,0.194,5.633
				c0.764,0.402,1.885,0.526,2.072,1.369c0.168,0.754-0.597,1.34-1.105,1.921c-1.396,1.596-0.805,4.469,1.107,5.385
				c0.437,0.209,0.974,0.381,1.136,0.838c0.116,0.327-0.011,0.683-0.104,1.017c-0.177,0.632-0.237,1.297-0.175,1.95
				c0.021,0.224,0.067,0.466,0.237,0.612c0.155,0.133,0.373,0.153,0.577,0.162c2.629,0.117,3.896-0.813,5.501,1.474
				c0.154,0.22,0.316,0.446,0.547,0.581c0.217,0.126,0.475,0.16,0.725,0.181c1.807,0.149,2.988-0.979,4.639-1.189
				c2.291-0.292,2.776,0.889,4.795,1.838C373.59,138.113,375.129,137.193,375.726,135.03z"/>
			<path style="fill:#F5F5F5;" d="M391.451,145.625c0.152-0.551,0.243-1.182,0.284-1.877c0.231-3.895,3.949-3.277,7.112-3.806
				c2.471-0.413-4.072-6.655,0.91-8.669c0.925-0.374,1.931-0.797,2.404-1.676c0.626-1.162-0.007-2.692-1.085-3.454
				c-1.078-0.762-2.463-0.924-3.783-0.948c-0.813-0.988-0.152-2.475,0.635-3.484c0.786-1.009,1.75-2.157,1.452-3.401
				c-0.45-1.879-3.075-1.946-4.972-1.581c-0.701-1.135-0.687-2.554-1.027-3.844c-0.34-1.29-1.366-2.644-2.69-2.482
				c-1.247,0.152-2.01,1.561-3.233,1.849c-1.421,0.335-2.651-0.922-3.765-1.864c-1.114-0.942-3.063-1.531-3.831-0.289
				c-0.46,0.743-0.184,1.779-0.662,2.511c-0.828,1.268-2.79,0.481-4.009-0.418c-1.219-0.899-3.16-1.714-4.017-0.465
				c-0.263,0.382-0.32,0.864-0.472,1.303c-0.577,1.664-2.375,2.492-3.775,3.559c-1.401,1.067-2.51,3.189-1.325,4.491
				c0.585,0.642,1.613,0.903,1.904,1.721c0.363,1.023-0.682,1.94-1.509,2.643c-1.377,1.171-1.626,4.675,0.194,5.633
				c0.764,0.402,1.885,0.526,2.072,1.369c0.168,0.754-0.597,1.34-1.105,1.921c-1.396,1.596-0.805,4.469,1.107,5.385
				c0.437,0.209,0.974,0.381,1.136,0.838c0.116,0.327-0.011,0.683-0.104,1.017c-0.177,0.632-0.237,1.297-0.175,1.95
				c0.021,0.224,0.067,0.466,0.237,0.612c0.155,0.133,0.373,0.153,0.577,0.162c2.629,0.117,3.896-0.813,5.501,1.474
				c0.154,0.22,0.315,0.446,0.547,0.581c0.217,0.127,0.475,0.16,0.725,0.181c1.807,0.149,2.988-0.979,4.639-1.189
				c2.291-0.292,2.776,0.889,4.795,1.838C389.316,148.708,390.855,147.788,391.451,145.625z"/>
			<path style="fill:#F5F5F5;" d="M386.684,159.016c0,0-6.577,9.298-8.844,12.246c-2.268,2.948-13.607,21.317-15.15,33.467
				c-0.165,1.297-0.327,2.413-0.485,3.389c4.877,32.193,4.112,155.092,3.94,165.176h-20.008
				c3.807-75.531,3.101-179.31,2.617-182.484c-0.512-3.358-6.972-16.146-16.95-21.4c-9.978-5.254-18.601-22.64-18.601-22.64h3.18
				c0,0,5.896,10.659,14.287,16.555c1.219,0.856,2.48,1.569,3.775,2.238c-0.301-9.605,3.337-18.793,3.337-18.793l1.717,1.587
				c-2.318,9.493-2.013,15.573-1.312,19.066c2.816,1.411,5.738,3.045,8.676,5.806c8.704-11.318,13.598-37.202,13.598-37.202
				l2.229,1.217c0,0-0.724,7.03-2.878,15.875c-1.631,6.699-6.43,19.313-8.663,25.04c2.219,3.082,4.423,7.067,6.575,12.342
				c0.244-0.375,0.519-0.717,0.84-1.007c5.67-5.126,16.328-29.345,16.328-29.345c2.578-5.63-1.361-20.41-1.361-20.41h2.975
				l1.333,12.927l7.484-8.164l1.361,1.134l-7.937,10.205l-4.082,12.93l10.659-11.796L386.684,159.016z"/>
		</g>
		<g>
			<path style="fill:#F5F5F5;" d="M85.89,177.454c-0.143-0.519-0.229-1.114-0.267-1.769c-0.218-3.668-3.72-3.087-6.699-3.585
				c-2.327-0.389,3.836-6.269-0.857-8.165c-0.872-0.352-1.819-0.751-2.264-1.578c-0.589-1.095,0.007-2.536,1.022-3.254
				c1.015-0.718,2.32-0.87,3.563-0.893c0.765-0.931,0.143-2.331-0.598-3.282c-0.741-0.95-1.648-2.032-1.367-3.203
				c0.424-1.769,2.897-1.833,4.683-1.489c0.66-1.069,0.647-2.406,0.968-3.621s1.287-2.49,2.534-2.338
				c1.175,0.143,1.893,1.47,3.045,1.741c1.338,0.315,2.497-0.868,3.546-1.756c1.05-0.888,2.885-1.442,3.608-0.272
				c0.433,0.7,0.174,1.676,0.623,2.365c0.78,1.195,2.629,0.453,3.776-0.394c1.148-0.847,2.976-1.614,3.784-0.438
				c0.247,0.36,0.302,0.814,0.445,1.227c0.543,1.567,2.237,2.348,3.556,3.353c1.319,1.005,2.365,3.004,1.248,4.23
				c-0.551,0.605-1.52,0.85-1.793,1.621c-0.342,0.963,0.643,1.827,1.422,2.489c1.297,1.103,1.532,4.403-0.182,5.306
				c-0.72,0.379-1.775,0.495-1.952,1.289c-0.158,0.71,0.563,1.262,1.041,1.81c1.315,1.503,0.758,4.21-1.043,5.073
				c-0.412,0.197-0.917,0.359-1.07,0.789c-0.109,0.308,0.01,0.644,0.098,0.958c0.167,0.595,0.223,1.222,0.165,1.837
				c-0.02,0.211-0.063,0.439-0.224,0.577c-0.146,0.125-0.352,0.145-0.543,0.153c-2.476,0.11-3.67-0.766-5.181,1.388
				c-0.145,0.207-0.297,0.42-0.516,0.548c-0.205,0.119-0.447,0.151-0.683,0.17c-1.702,0.14-2.814-0.922-4.37-1.12
				c-2.158-0.275-2.615,0.838-4.516,1.731C87.901,180.357,86.452,179.491,85.89,177.454z"/>
			<path style="fill:#F5F5F5;" d="M114.404,174.373c-0.143-0.519-0.229-1.114-0.267-1.768c-0.218-3.668-3.72-3.087-6.699-3.585
				c-2.327-0.389,3.836-6.269-0.857-8.165c-0.872-0.352-1.819-0.751-2.265-1.578c-0.589-1.095,0.007-2.536,1.022-3.254
				c1.015-0.718,2.32-0.87,3.563-0.893c0.765-0.931,0.143-2.331-0.598-3.281c-0.741-0.95-1.648-2.032-1.367-3.204
				c0.424-1.769,2.897-1.833,4.684-1.489c0.66-1.069,0.647-2.406,0.968-3.621s1.286-2.49,2.534-2.338
				c1.175,0.143,1.893,1.47,3.045,1.741c1.338,0.315,2.497-0.868,3.546-1.756c1.05-0.888,2.885-1.442,3.608-0.272
				c0.433,0.7,0.174,1.676,0.623,2.365c0.78,1.195,2.628,0.453,3.776-0.394c1.148-0.847,2.977-1.614,3.784-0.438
				c0.247,0.36,0.302,0.814,0.445,1.227c0.543,1.567,2.237,2.348,3.556,3.353c1.319,1.005,2.365,3.004,1.248,4.23
				c-0.551,0.605-1.52,0.85-1.793,1.621c-0.342,0.963,0.643,1.827,1.422,2.489c1.297,1.103,1.532,4.403-0.183,5.306
				c-0.72,0.379-1.775,0.495-1.952,1.289c-0.158,0.71,0.563,1.262,1.041,1.81c1.314,1.503,0.758,4.21-1.043,5.073
				c-0.412,0.197-0.917,0.359-1.07,0.789c-0.109,0.308,0.01,0.643,0.098,0.958c0.167,0.595,0.223,1.222,0.165,1.837
				c-0.02,0.211-0.063,0.439-0.224,0.577c-0.145,0.125-0.352,0.145-0.543,0.153c-2.476,0.11-3.67-0.766-5.181,1.388
				c-0.145,0.207-0.297,0.42-0.516,0.548c-0.205,0.119-0.447,0.151-0.683,0.17c-1.702,0.14-2.814-0.922-4.37-1.12
				c-2.158-0.275-2.615,0.838-4.516,1.731C116.415,177.277,114.965,176.41,114.404,174.373z"/>
			<path style="fill:#F5F5F5;" d="M117.151,156.214c-0.143-0.519-0.228-1.114-0.267-1.768c-0.218-3.668-3.72-3.087-6.699-3.585
				c-2.327-0.389,3.836-6.269-0.857-8.166c-0.872-0.352-1.819-0.751-2.265-1.578c-0.589-1.095,0.007-2.536,1.022-3.254
				c1.015-0.718,2.32-0.87,3.563-0.893c0.766-0.931,0.143-2.331-0.598-3.281c-0.741-0.951-1.648-2.032-1.367-3.204
				c0.424-1.77,2.897-1.833,4.683-1.489c0.66-1.069,0.647-2.406,0.968-3.621c0.32-1.215,1.287-2.49,2.534-2.338
				c1.175,0.143,1.893,1.47,3.045,1.741c1.338,0.315,2.497-0.868,3.546-1.756c1.05-0.888,2.885-1.442,3.608-0.272
				c0.433,0.7,0.174,1.676,0.624,2.365c0.78,1.195,2.628,0.453,3.776-0.394c1.148-0.847,2.976-1.614,3.784-0.438
				c0.247,0.36,0.302,0.814,0.445,1.227c0.543,1.567,2.237,2.348,3.556,3.353c1.319,1.005,2.365,3.004,1.248,4.23
				c-0.551,0.605-1.52,0.85-1.793,1.621c-0.342,0.963,0.643,1.827,1.422,2.49c1.297,1.103,1.532,4.403-0.183,5.306
				c-0.72,0.379-1.775,0.495-1.952,1.289c-0.158,0.71,0.563,1.262,1.041,1.81c1.314,1.503,0.758,4.21-1.043,5.073
				c-0.412,0.197-0.917,0.359-1.07,0.789c-0.109,0.308,0.01,0.643,0.098,0.958c0.167,0.595,0.223,1.221,0.165,1.837
				c-0.02,0.211-0.063,0.439-0.224,0.577c-0.146,0.125-0.352,0.145-0.543,0.153c-2.476,0.11-3.67-0.766-5.181,1.388
				c-0.145,0.207-0.297,0.42-0.516,0.548c-0.205,0.119-0.447,0.151-0.683,0.17c-1.702,0.14-2.814-0.922-4.369-1.12
				c-2.158-0.275-2.615,0.838-4.516,1.731C119.162,159.118,117.713,158.252,117.151,156.214z"/>
			<path style="fill:#F5F5F5;" d="M135.934,165.259c-0.143-0.519-0.229-1.114-0.267-1.768c-0.218-3.668-3.72-3.087-6.699-3.585
				c-2.327-0.389,3.836-6.269-0.858-8.165c-0.872-0.352-1.819-0.751-2.265-1.578c-0.589-1.095,0.007-2.536,1.022-3.254
				c1.015-0.718,2.32-0.87,3.563-0.893c0.766-0.931,0.143-2.331-0.598-3.282c-0.741-0.95-1.648-2.032-1.367-3.203
				c0.424-1.769,2.897-1.833,4.683-1.489c0.66-1.069,0.647-2.406,0.968-3.621s1.287-2.49,2.534-2.338
				c1.175,0.143,1.893,1.47,3.045,1.741c1.338,0.315,2.497-0.868,3.546-1.756c1.05-0.888,2.885-1.442,3.609-0.273
				c0.433,0.7,0.174,1.676,0.623,2.365c0.78,1.195,2.629,0.453,3.776-0.394c1.148-0.847,2.977-1.614,3.784-0.438
				c0.247,0.36,0.302,0.814,0.445,1.227c0.543,1.567,2.237,2.348,3.556,3.353c1.319,1.005,2.365,3.004,1.248,4.23
				c-0.551,0.605-1.52,0.85-1.793,1.621c-0.342,0.963,0.643,1.827,1.422,2.489c1.297,1.103,1.532,4.403-0.183,5.306
				c-0.72,0.379-1.775,0.495-1.952,1.289c-0.158,0.71,0.562,1.262,1.041,1.81c1.314,1.503,0.758,4.21-1.043,5.073
				c-0.412,0.197-0.918,0.359-1.07,0.789c-0.109,0.308,0.01,0.644,0.098,0.958c0.167,0.595,0.223,1.222,0.165,1.837
				c-0.02,0.211-0.063,0.439-0.224,0.577c-0.145,0.125-0.352,0.145-0.543,0.153c-2.476,0.11-3.67-0.766-5.181,1.388
				c-0.145,0.207-0.297,0.42-0.516,0.548c-0.204,0.119-0.447,0.151-0.683,0.17c-1.702,0.14-2.814-0.922-4.37-1.12
				c-2.158-0.275-2.615,0.838-4.516,1.731C137.945,168.163,136.495,167.296,135.934,165.259z"/>
			<path style="fill:#F5F5F5;" d="M154.917,161.081c-0.143-0.519-0.229-1.114-0.267-1.769c-0.218-3.668-3.72-3.087-6.699-3.585
				c-2.327-0.389,3.836-6.269-0.857-8.165c-0.872-0.352-1.819-0.751-2.265-1.578c-0.589-1.095,0.007-2.536,1.022-3.254
				c1.015-0.718,2.32-0.87,3.563-0.893c0.765-0.931,0.143-2.331-0.598-3.282c-0.741-0.95-1.648-2.032-1.367-3.203
				c0.424-1.77,2.897-1.833,4.683-1.489c0.66-1.069,0.647-2.406,0.968-3.621s1.287-2.49,2.534-2.338
				c1.175,0.143,1.893,1.47,3.045,1.741c1.338,0.315,2.497-0.868,3.546-1.756c1.05-0.888,2.885-1.442,3.609-0.272
				c0.433,0.7,0.174,1.676,0.623,2.365c0.78,1.195,2.629,0.453,3.776-0.394c1.148-0.847,2.977-1.614,3.784-0.438
				c0.247,0.36,0.302,0.814,0.445,1.227c0.543,1.567,2.237,2.348,3.556,3.353c1.319,1.005,2.365,3.004,1.248,4.23
				c-0.551,0.605-1.52,0.85-1.793,1.621c-0.342,0.963,0.643,1.827,1.422,2.49c1.297,1.103,1.532,4.403-0.183,5.306
				c-0.72,0.379-1.775,0.495-1.952,1.289c-0.158,0.71,0.562,1.262,1.041,1.81c1.314,1.503,0.758,4.21-1.043,5.073
				c-0.412,0.197-0.918,0.359-1.07,0.789c-0.109,0.308,0.01,0.643,0.098,0.958c0.167,0.595,0.223,1.222,0.165,1.837
				c-0.02,0.211-0.063,0.439-0.224,0.577c-0.145,0.125-0.352,0.145-0.543,0.153c-2.476,0.11-3.67-0.766-5.181,1.388
				c-0.145,0.207-0.297,0.42-0.516,0.548c-0.204,0.119-0.447,0.151-0.683,0.17c-1.702,0.14-2.814-0.922-4.37-1.12
				c-2.158-0.275-2.615,0.838-4.516,1.731C156.928,163.985,155.479,163.119,154.917,161.081z"/>
			<path style="fill:#F5F5F5;" d="M155.165,181.387c-0.113-0.409-0.18-0.877-0.21-1.393c-0.172-2.888-2.929-2.431-5.275-2.823
				c-1.833-0.306,3.02-4.936-0.675-6.43c-0.686-0.277-1.432-0.591-1.783-1.243c-0.464-0.862,0.006-1.997,0.805-2.562
				c0.799-0.565,1.827-0.685,2.805-0.704c0.603-0.733,0.113-1.835-0.471-2.584c-0.583-0.748-1.298-1.6-1.077-2.522
				c0.334-1.393,2.281-1.443,3.688-1.173c0.52-0.842,0.51-1.894,0.762-2.851s1.013-1.961,1.995-1.841
				c0.925,0.113,1.491,1.157,2.398,1.371c1.054,0.248,1.966-0.684,2.792-1.382c0.827-0.699,2.272-1.135,2.841-0.215
				c0.341,0.551,0.137,1.32,0.491,1.862c0.614,0.941,2.07,0.357,2.973-0.31c0.904-0.667,2.344-1.271,2.98-0.345
				c0.195,0.284,0.238,0.641,0.35,0.966c0.428,1.234,1.761,1.848,2.8,2.64c1.039,0.791,1.862,2.365,0.983,3.331
				c-0.434,0.476-1.197,0.669-1.412,1.277c-0.269,0.759,0.506,1.439,1.119,1.96c1.021,0.868,1.206,3.467-0.144,4.178
				c-0.567,0.298-1.398,0.39-1.537,1.015c-0.124,0.559,0.443,0.994,0.82,1.425c1.035,1.184,0.597,3.315-0.821,3.994
				c-0.324,0.155-0.722,0.283-0.842,0.621c-0.086,0.242,0.008,0.507,0.077,0.754c0.132,0.469,0.176,0.962,0.13,1.447
				c-0.016,0.166-0.05,0.346-0.176,0.454c-0.115,0.099-0.277,0.114-0.428,0.12c-1.949,0.087-2.89-0.603-4.08,1.093
				c-0.114,0.163-0.234,0.331-0.406,0.431c-0.161,0.094-0.352,0.119-0.538,0.134c-1.34,0.111-2.216-0.726-3.44-0.882
				c-1.699-0.216-2.059,0.66-3.556,1.363C156.748,183.674,155.607,182.992,155.165,181.387z"/>
			<path style="fill:#F5F5F5;" d="M165.801,174.373c-0.143-0.519-0.228-1.114-0.267-1.768c-0.218-3.668-3.72-3.087-6.699-3.585
				c-2.327-0.389,3.835-6.269-0.857-8.165c-0.872-0.352-1.819-0.751-2.265-1.578c-0.589-1.095,0.007-2.536,1.022-3.254
				c1.015-0.718,2.32-0.87,3.563-0.893c0.765-0.931,0.143-2.331-0.598-3.281c-0.741-0.95-1.648-2.032-1.367-3.204
				c0.424-1.769,2.897-1.833,4.684-1.489c0.66-1.069,0.647-2.406,0.967-3.621c0.32-1.215,1.287-2.49,2.534-2.338
				c1.175,0.143,1.893,1.47,3.045,1.741c1.338,0.315,2.497-0.868,3.546-1.756c1.05-0.888,2.886-1.442,3.609-0.272
				c0.433,0.7,0.174,1.676,0.624,2.365c0.78,1.195,2.628,0.453,3.776-0.394c1.148-0.847,2.977-1.614,3.784-0.438
				c0.247,0.36,0.302,0.814,0.445,1.227c0.543,1.567,2.237,2.348,3.556,3.353c1.319,1.005,2.365,3.004,1.248,4.23
				c-0.551,0.605-1.52,0.85-1.793,1.621c-0.342,0.963,0.643,1.827,1.421,2.489c1.297,1.103,1.532,4.403-0.182,5.306
				c-0.72,0.379-1.775,0.495-1.952,1.289c-0.158,0.71,0.563,1.262,1.041,1.81c1.315,1.503,0.758,4.21-1.043,5.073
				c-0.412,0.197-0.917,0.359-1.07,0.789c-0.109,0.308,0.01,0.643,0.098,0.958c0.167,0.595,0.223,1.222,0.165,1.837
				c-0.02,0.211-0.063,0.439-0.224,0.577c-0.146,0.125-0.352,0.145-0.543,0.153c-2.476,0.11-3.67-0.766-5.181,1.388
				c-0.145,0.207-0.297,0.42-0.516,0.548c-0.205,0.119-0.447,0.151-0.683,0.17c-1.702,0.14-2.814-0.922-4.369-1.12
				c-2.158-0.275-2.615,0.838-4.516,1.731C167.812,177.277,166.363,176.41,165.801,174.373z"/>
			<path style="fill:#F5F5F5;" d="M135.934,142.923c-0.143-0.519-0.229-1.114-0.267-1.768c-0.218-3.668-3.72-3.087-6.699-3.585
				c-2.327-0.389,3.836-6.269-0.858-8.166c-0.872-0.352-1.819-0.751-2.265-1.578c-0.589-1.095,0.007-2.536,1.022-3.254
				c1.015-0.718,2.32-0.87,3.563-0.893c0.766-0.931,0.143-2.331-0.598-3.281c-0.741-0.95-1.648-2.032-1.367-3.203
				c0.424-1.769,2.897-1.833,4.683-1.489c0.66-1.069,0.647-2.406,0.968-3.621c0.32-1.215,1.287-2.49,2.534-2.338
				c1.175,0.143,1.893,1.47,3.045,1.741c1.338,0.315,2.497-0.868,3.546-1.756c1.05-0.888,2.885-1.442,3.609-0.272
				c0.433,0.7,0.174,1.676,0.623,2.365c0.78,1.195,2.629,0.453,3.776-0.394c1.148-0.847,2.977-1.614,3.784-0.438
				c0.247,0.36,0.302,0.814,0.445,1.227c0.543,1.567,2.237,2.348,3.556,3.353c1.319,1.005,2.365,3.004,1.248,4.23
				c-0.551,0.605-1.52,0.85-1.793,1.621c-0.342,0.963,0.643,1.827,1.422,2.489c1.297,1.103,1.532,4.403-0.183,5.306
				c-0.72,0.379-1.775,0.495-1.952,1.289c-0.158,0.71,0.562,1.262,1.041,1.81c1.314,1.503,0.758,4.21-1.043,5.073
				c-0.412,0.197-0.918,0.359-1.07,0.789c-0.109,0.308,0.01,0.644,0.098,0.958c0.167,0.595,0.223,1.221,0.165,1.837
				c-0.02,0.211-0.063,0.439-0.224,0.577c-0.145,0.125-0.352,0.145-0.543,0.153c-2.476,0.11-3.67-0.766-5.181,1.388
				c-0.145,0.207-0.297,0.42-0.516,0.548c-0.204,0.119-0.447,0.151-0.683,0.17c-1.702,0.14-2.814-0.922-4.37-1.12
				c-2.158-0.275-2.615,0.838-4.516,1.731C137.945,145.827,136.495,144.96,135.934,142.923z"/>
			<path style="fill:#F5F5F5;" d="M111.547,144.17c-0.143-0.519-0.229-1.114-0.267-1.769c-0.218-3.668-3.72-3.087-6.699-3.585
				c-2.327-0.389,3.835-6.269-0.858-8.165c-0.872-0.352-1.819-0.751-2.265-1.578c-0.589-1.095,0.007-2.536,1.022-3.254
				c1.015-0.718,2.32-0.87,3.563-0.893c0.766-0.931,0.143-2.331-0.598-3.281c-0.741-0.95-1.648-2.032-1.367-3.204
				c0.424-1.769,2.897-1.833,4.683-1.489c0.66-1.069,0.647-2.406,0.968-3.621c0.32-1.215,1.286-2.49,2.534-2.338
				c1.175,0.143,1.893,1.47,3.045,1.741c1.338,0.315,2.497-0.868,3.546-1.756c1.05-0.888,2.885-1.442,3.608-0.272
				c0.433,0.7,0.174,1.676,0.623,2.365c0.78,1.195,2.629,0.453,3.776-0.394c1.148-0.847,2.976-1.614,3.784-0.438
				c0.247,0.36,0.302,0.814,0.445,1.227c0.543,1.567,2.237,2.347,3.556,3.353c1.319,1.005,2.365,3.004,1.248,4.23
				c-0.551,0.605-1.52,0.85-1.793,1.621c-0.342,0.963,0.643,1.827,1.422,2.49c1.297,1.103,1.532,4.403-0.183,5.306
				c-0.72,0.379-1.775,0.495-1.952,1.289c-0.158,0.71,0.563,1.262,1.041,1.81c1.315,1.503,0.758,4.21-1.043,5.073
				c-0.412,0.197-0.917,0.359-1.07,0.789c-0.109,0.308,0.01,0.643,0.098,0.958c0.167,0.595,0.223,1.222,0.165,1.837
				c-0.02,0.211-0.063,0.439-0.224,0.577c-0.146,0.125-0.352,0.145-0.543,0.153c-2.476,0.11-3.67-0.766-5.181,1.388
				c-0.145,0.207-0.297,0.42-0.516,0.548c-0.205,0.119-0.447,0.151-0.683,0.17c-1.702,0.14-2.814-0.922-4.37-1.12
				c-2.158-0.275-2.615,0.838-4.516,1.731C113.559,147.074,112.109,146.208,111.547,144.17z"/>
			<path style="fill:#F5F5F5;" d="M96.735,154.15c-0.143-0.519-0.229-1.114-0.267-1.768c-0.218-3.668-3.72-3.087-6.699-3.585
				c-2.327-0.389,3.835-6.269-0.858-8.166c-0.872-0.352-1.819-0.751-2.265-1.578c-0.589-1.095,0.007-2.536,1.022-3.254
				c1.015-0.718,2.32-0.87,3.563-0.893c0.765-0.931,0.143-2.331-0.598-3.282c-0.741-0.95-1.648-2.032-1.367-3.203
				c0.424-1.769,2.897-1.833,4.684-1.489c0.66-1.069,0.647-2.406,0.968-3.621c0.32-1.215,1.286-2.49,2.534-2.338
				c1.175,0.143,1.893,1.47,3.045,1.741c1.338,0.315,2.497-0.868,3.546-1.756c1.05-0.888,2.885-1.442,3.608-0.272
				c0.433,0.7,0.174,1.676,0.623,2.365c0.78,1.195,2.629,0.453,3.776-0.394c1.148-0.847,2.976-1.614,3.784-0.438
				c0.247,0.36,0.302,0.814,0.445,1.227c0.543,1.567,2.237,2.348,3.556,3.353c1.319,1.005,2.365,3.004,1.248,4.23
				c-0.551,0.605-1.52,0.85-1.793,1.621c-0.342,0.963,0.643,1.827,1.422,2.489c1.297,1.103,1.532,4.403-0.183,5.306
				c-0.72,0.379-1.775,0.495-1.952,1.289c-0.158,0.71,0.563,1.262,1.041,1.81c1.314,1.503,0.758,4.21-1.043,5.073
				c-0.412,0.197-0.917,0.359-1.07,0.789c-0.109,0.308,0.01,0.644,0.098,0.958c0.167,0.595,0.223,1.222,0.165,1.837
				c-0.02,0.21-0.063,0.439-0.224,0.577c-0.146,0.125-0.352,0.145-0.543,0.153c-2.476,0.11-3.67-0.766-5.181,1.388
				c-0.145,0.207-0.297,0.42-0.516,0.548c-0.205,0.119-0.447,0.151-0.683,0.17c-1.702,0.14-2.814-0.922-4.369-1.12
				c-2.158-0.275-2.615,0.838-4.516,1.731C98.746,157.054,97.296,156.187,96.735,154.15z"/>
			<path style="fill:#F5F5F5;" d="M101.226,166.764c0,0,6.195,8.758,8.331,11.535c2.136,2.777,12.817,20.079,14.27,31.524
				c0.155,1.221,0.308,2.273,0.457,3.192c-4.594,30.323-3.873,152.802-3.711,162.3h20.554c-2.25-93.822-4.629-175.614-4.173-178.604
				c0.482-3.163,6.567-15.208,15.966-20.157c9.399-4.949,17.521-21.325,17.521-21.325h-2.995c0,0-5.554,10.04-13.457,15.594
				c-1.148,0.807-2.337,1.478-3.556,2.108c0.283-9.047-3.143-17.702-3.143-17.702l-1.617,1.495
				c2.184,8.942,1.896,14.669,1.235,17.959c-2.653,1.329-5.405,2.868-8.173,5.469c-8.198-10.661-12.808-35.042-12.808-35.042
				l-2.099,1.147c0,0,0.682,6.622,2.711,14.953c1.536,6.31,6.057,18.191,8.16,23.586c-2.09,2.903-4.167,6.657-6.193,11.625
				c-0.23-0.354-0.489-0.675-0.791-0.948c-5.34-4.828-15.38-27.641-15.38-27.641c-2.428-5.303,1.282-19.225,1.282-19.225h-2.803
				l-1.256,12.176l-7.049-7.69l-1.282,1.068l7.476,9.613l3.845,12.179l-10.04-11.111L101.226,166.764z"/>
		</g>
		
			<rect x="62.138" y="292.378" transform="matrix(-1 -1.224647e-16 1.224647e-16 -1 482.6935 596.9073)" style="fill:#E0E0E0;" width="358.418" height="12.151"/>
		<g>
			<polygon style="fill:#E6E6E6;" points="412.116,367.826 428.995,367.826 428.995,261.264 420.556,255.264 412.116,261.264 			"/>
			<polygon style="fill:#E6E6E6;" points="382.248,367.826 399.127,367.826 399.127,261.264 390.687,255.264 382.248,261.264 			"/>
			<polygon style="fill:#E6E6E6;" points="352.38,367.826 369.259,367.826 369.259,261.264 360.819,255.264 352.38,261.264 			"/>
			<polygon style="fill:#E6E6E6;" points="322.512,367.826 339.391,367.826 339.391,261.264 330.951,255.264 322.512,261.264 			"/>
			<polygon style="fill:#E6E6E6;" points="292.643,367.826 309.523,367.826 309.523,261.264 301.083,255.264 292.643,261.264 			"/>
			<polygon style="fill:#E6E6E6;" points="262.775,367.826 279.654,367.826 279.654,261.264 271.215,255.264 262.775,261.264 			"/>
			<polygon style="fill:#E6E6E6;" points="232.907,367.826 249.786,367.826 249.786,261.264 241.347,255.264 232.907,261.264 			"/>
			<polygon style="fill:#E6E6E6;" points="203.039,367.826 219.918,367.826 219.918,261.264 211.479,255.264 203.039,261.264 			"/>
			<polygon style="fill:#E6E6E6;" points="173.171,367.826 190.05,367.826 190.05,261.264 181.611,255.264 173.171,261.264 			"/>
			<polygon style="fill:#E6E6E6;" points="143.303,367.826 160.182,367.826 160.182,261.264 151.742,255.264 143.303,261.264 			"/>
			<polygon style="fill:#E6E6E6;" points="113.435,367.826 130.314,367.826 130.314,261.264 121.874,255.264 113.435,261.264 			"/>
			<polygon style="fill:#E6E6E6;" points="83.566,367.826 100.446,367.826 100.446,261.264 92.006,255.264 83.566,261.264 			"/>
			<polygon style="fill:#E6E6E6;" points="53.698,367.826 70.577,367.826 70.577,261.264 62.138,255.264 53.698,261.264 			"/>
		</g>
		<path style="fill:#E0E0E0;" d="M66.535,368.987c0,0-2.794-9.36,2.858-11.224s9.005-6.241,8.816-11.192
			c-0.189-4.951,5.76-9.769,10.222-5.129c4.462,4.64,3.867-3.568,9.817-5.562c5.949-1.994,10.992,2.844,9.363,7.267
			c-1.629,4.422,4.242,7.185,11.272,3.424c7.03-3.761,14.764,3.081,13.277,8.435c-1.487,5.354-0.27,5.949,4.179,4.165
			c4.448-1.785,12.404,3.272,9.616,9.816C143.166,375.532,66.535,368.987,66.535,368.987z"/>
		<path style="fill:#E0E0E0;" d="M366.865,367.646c0,0-2.169-7.266,2.219-8.714c4.387-1.447,6.991-4.845,6.844-8.688
			c-0.147-3.843,4.472-7.583,7.936-3.981c3.464,3.602,3.002-2.77,7.62-4.318c4.618-1.548,8.533,2.208,7.269,5.641
			c-1.265,3.433,3.293,5.577,8.75,2.658c5.457-2.92,11.461,2.392,10.307,6.548c-1.155,4.157-0.209,4.618,3.244,3.233
			c3.453-1.385,9.629,2.54,7.465,7.621C426.353,372.726,366.865,367.646,366.865,367.646z"/>
		<path style="fill:#E0E0E0;" d="M258.309,368.507c-5-5-0.5-13.5,4.5-14.5s10.026-9.798,10.263-15.399
			c0.237-5.601,9.237-22.829,23.237-12.19c14,10.639,9.745,1.567,19.873-1.422c10.127-2.989,16.516,5.611,12.072,12.061
			c0,0,10.174-2.55,14.365,6.95c4.191,9.5,0,15.4,0,15.4s19.134-0.566,17.413,11.267
			C358.309,382.507,258.309,368.507,258.309,368.507z"/>
		<g>
			<path style="fill:#EBEBEB;" d="M436.14,368.807v13.7h-386v-13.7c0-2.38,1.66-4.3,4.04-4.3H432.1
				C434.48,364.507,436.14,366.427,436.14,368.807z"/>
			<g>
				<rect x="72.14" y="364.507" style="fill:#F5F5F5;" width="24" height="18"/>
				<rect x="118.14" y="364.507" style="fill:#F5F5F5;" width="23" height="18"/>
				<rect x="163.14" y="364.507" style="fill:#F5F5F5;" width="24" height="18"/>
				<rect x="209.14" y="364.507" style="fill:#F5F5F5;" width="23" height="18"/>
				<rect x="254.14" y="364.507" style="fill:#F5F5F5;" width="23" height="18"/>
				<rect x="299.14" y="364.507" style="fill:#F5F5F5;" width="24" height="18"/>
				<rect x="345.14" y="364.507" style="fill:#F5F5F5;" width="23" height="18"/>
				<rect x="390.14" y="364.507" style="fill:#F5F5F5;" width="24" height="18"/>
			</g>
		</g>
	</g>
</g>
<g id="Background_Simple" style="display:none;">
	<g style="display:inline;">
		<path style="fill:#407BFF;" d="M246.22,110.306c-74.167,33.369-6.839,92.843-49.663,125.233
			c-42.824,32.39-159.258-5.055-114.872,79.055c52.138,98.799,280.453,85.079,329.68-36.104
			C460.592,157.307,320.388,76.937,246.22,110.306z"/>
		<path style="opacity:0.9;fill:#FFFFFF;" d="M246.22,110.306c-74.167,33.369-6.839,92.843-49.663,125.233
			c-42.824,32.39-159.258-5.055-114.872,79.055c52.138,98.799,280.453,85.079,329.68-36.104
			C460.592,157.307,320.388,76.937,246.22,110.306z"/>
	</g>
</g>
<g id="Shadow_1_">
	<ellipse id="_x3C_Path_x3E__359_" style="fill:#F5F5F5;" cx="250" cy="416.238" rx="193.889" ry="11.323"/>
</g>
<g id="Trash_bin">
	<g>
		<rect x="391.784" y="312.856" style="fill:#263238;" width="33.785" height="23.615"/>
		<path style="fill:#407BFF;" d="M380.925,307.505v109.699h46.626V307.505H380.925z M422.466,329.57h-14.823v-8.941
			c0-2.078,1.686-3.765,3.764-3.765h7.294c2.078,0,3.764,1.686,3.764,3.765V329.57z"/>
		<path style="opacity:0.6;fill:#FFFFFF;enable-background:new    ;" d="M380.925,307.505v109.699h46.626V307.505H380.925z
			 M422.466,329.57h-14.823v-8.941c0-2.078,1.686-3.765,3.764-3.765h7.294c2.078,0,3.764,1.686,3.764,3.765V329.57z"/>
		<rect x="380.925" y="307.51" style="opacity:0.4;fill:#FFFFFF;enable-background:new    ;" width="19.995" height="109.699"/>
		<rect x="379.718" y="303.571" style="fill:#407BFF;" width="48.931" height="7.216"/>
		<rect x="379.718" y="303.571" style="opacity:0.2;fill:#FFFFFF;enable-background:new    ;" width="22.581" height="7.216"/>
	</g>
</g>
<g id="Character">
	<g>
		<g>
			<polygon style="fill:#407BFF;" points="144.101,417.208 137.497,417.208 150.997,346.017 157.6,346.017 			"/>
			<polygon style="fill:#407BFF;" points="289.256,417.208 282.652,417.208 296.152,346.017 302.756,346.017 			"/>
			<polygon style="opacity:0.3;fill:#FFFFFF;" points="144.101,417.208 137.497,417.208 150.997,346.017 157.6,346.017 			"/>
			<polygon style="opacity:0.3;fill:#FFFFFF;" points="289.256,417.208 282.652,417.208 296.152,346.017 302.756,346.017 			"/>
			<rect x="147.549" y="379.111" style="fill:#407BFF;" width="199.153" height="6.688"/>
			<rect x="147.549" y="379.111" style="opacity:0.5;fill:#FFFFFF;" width="199.153" height="6.688"/>
			<polygon style="fill:#407BFF;" points="204.995,417.208 211.599,417.208 198.099,346.017 191.495,346.017 			"/>
			<polygon style="fill:#407BFF;" points="350.15,417.208 356.754,417.208 343.254,346.017 336.651,346.017 			"/>
			<polygon style="opacity:0.3;fill:#FFFFFF;" points="204.995,417.208 211.599,417.208 198.099,346.017 191.495,346.017 			"/>
			<polygon style="opacity:0.3;fill:#FFFFFF;" points="350.15,417.208 356.754,417.208 343.254,346.017 336.651,346.017 			"/>
			<polygon style="fill:#407BFF;" points="290.268,343.056 283.696,343.056 272.697,281.906 279.268,281.906 			"/>
			<polygon style="opacity:0.3;fill:#FFFFFF;" points="290.268,343.056 283.696,343.056 272.697,281.906 279.268,281.906 			"/>
			<polygon style="fill:#407BFF;" points="159.782,343.056 153.211,343.056 142.211,281.906 148.783,281.906 			"/>
			<polygon style="fill:#407BFF;" points="225.025,343.056 218.454,343.056 207.454,281.906 214.025,281.906 			"/>
			<polygon style="opacity:0.3;fill:#FFFFFF;" points="159.782,343.056 153.211,343.056 142.211,281.906 148.783,281.906 			"/>
			<polygon style="opacity:0.3;fill:#FFFFFF;" points="225.025,343.056 218.454,343.056 207.454,281.906 214.025,281.906 			"/>
			<polygon style="fill:#407BFF;" points="301.617,286.083 129.047,286.083 126.988,274.638 299.559,274.638 			"/>
			<polygon style="fill:#407BFF;" points="305.341,306.785 132.771,306.785 130.712,295.34 303.283,295.34 			"/>
			<polygon style="fill:#407BFF;" points="309.065,327.487 136.495,327.487 134.436,316.043 307.006,316.043 			"/>
			<rect x="138.204" y="341.254" style="fill:#407BFF;" width="219.929" height="7.917"/>
			<polygon style="opacity:0.5;fill:#FFFFFF;" points="301.617,286.083 129.047,286.083 126.988,274.638 299.559,274.638 			"/>
			<polygon style="opacity:0.5;fill:#FFFFFF;" points="305.341,306.785 132.771,306.785 130.712,295.34 303.283,295.34 			"/>
			<polygon style="opacity:0.5;fill:#FFFFFF;" points="309.065,327.487 136.495,327.487 134.436,316.043 307.006,316.043 			"/>
			<rect x="138.204" y="341.254" style="opacity:0.5;fill:#FFFFFF;" width="219.929" height="7.917"/>
			<rect x="192.202" y="341.254" style="opacity:0.2;fill:#FFFFFF;" width="165.931" height="7.917"/>
		</g>
		<g id="_x3C_Group_x3E__4_">
			<g>
				<path style="fill:#EBC0BB;" d="M225.89,242.424c2.323,0.269,4.794,0.616,7.19,0.839c2.407,0.272,4.808,0.496,7.162,0.664
					c2.338,0.142,4.692,0.264,6.703,0.125c0.491-0.029,0.971-0.066,1.349-0.123c0.419-0.044,0.672-0.128,0.775-0.123
					c-0.014,0.006-0.024,0.02-0.028,0.041c0.005,0.003,0.017-0.002-0.112,0.079c-0.09,0.06-0.172,0.121-0.298,0.22
					c-0.105,0.087-0.222,0.19-0.366,0.334c-0.118,0.123-0.275,0.299-0.412,0.491c-0.281,0.381-0.558,0.923-0.71,1.508
					c-0.152,0.599-0.175,1.161-0.114,1.642c0.121,0.914,0.39,1.339,0.531,1.588c0.312,0.469,0.354,0.419,0.329,0.396
					c-0.032-0.047-0.146-0.158-0.287-0.278c-0.591-0.518-1.548-1.158-2.505-1.745c-0.972-0.6-2.012-1.176-3.062-1.762
					c-2.102-1.179-4.302-2.282-6.5-3.418l-13.372-6.701l1.925-5.305c4.976,1.228,9.843,2.642,14.691,4.318
					c2.431,0.819,4.834,1.735,7.267,2.723c1.216,0.499,2.425,1.045,3.663,1.642c1.246,0.617,2.475,1.232,3.906,2.208
					c0.362,0.257,0.738,0.539,1.167,0.92c0.431,0.407,0.913,0.816,1.548,1.825c0.3,0.518,0.697,1.237,0.857,2.464
					c0.07,0.637,0.051,1.359-0.148,2.109c-0.189,0.738-0.54,1.422-0.914,1.929c-0.184,0.254-0.389,0.492-0.565,0.669
					c-0.197,0.202-0.373,0.356-0.542,0.49c-0.186,0.151-0.334,0.254-0.49,0.357c-0.192,0.127-0.251,0.158-0.316,0.196
					c-0.284,0.164-0.573,0.322-0.866,0.471c-1.055,0.49-2.003,0.794-2.818,0.99c-0.848,0.218-1.614,0.355-2.37,0.472
					c-2.988,0.403-5.675,0.484-8.355,0.443c-5.352-0.076-10.415-0.595-15.642-1.437L225.89,242.424z"/>
			</g>
			<path style="fill:#407BFF;" d="M240.976,256.78l-5.12,0.59l-4.48,0.51l-2.59-6.72l-3.59-9.33l10.73,1.13l4.61,1.86
				C240.536,244.82,241.766,250.83,240.976,256.78z"/>
			<path style="opacity:0.2;" d="M235.857,257.37l-4.48,0.51l-2.59-6.72C230.917,252.14,234.167,254.1,235.857,257.37z"/>
			<path style="fill:#407BFF;" d="M191.422,250.956c0,0,1.786-6.852,9.231-9.128c7.445-2.277,15.626-0.366,18.527,1.744
				C222.081,245.681,207.246,254.582,191.422,250.956z"/>
			<path style="fill:#263238;" d="M225.2,241.827c0,0,13.995,19.982,13.708,58.401c-11.875,2.144-33.654,6.067-39.434,7.106
				c-0.714-2.656-1.538-10.647-3.574-21.017c-0.867-4.424-1.958-9.287-3.361-14.353c-1.923-6.923-4.407-14.227-7.702-21.299
				c0,0,14.323-4.509,19.508-5.645C209.251,243.948,225.2,241.827,225.2,241.827z"/>
			<g>
				<path style="fill:#EEC1BB;" d="M195.746,228.109c0,0,0,0.009,0.009,0.037c0.384,0.941,0.795,2.028,1.188,3.207
					c0,0.009,0.009,0.018,0.009,0.027c1.782,5.309,3.28,12.391,0.768,15.954c3.317,2.294,7.876,3.883,13.916,2.522
					c4.615-1.033,4.231-4.331,2.851-5.921c-2.376-0.082-3.956-0.777-4.989-1.837c-1.7-1.764-1.919-4.541-1.764-7.283
					L195.746,228.109z"/>
				<path style="opacity:0.2;" d="M195.746,228.109c0,0,0,0.009,0.009,0.037c0.073,0.238,0.448,1.517,1.188,3.207
					c0,0.009,0.009,0.018,0.009,0.027c1.818,4.167,5.784,10.81,12.546,10.718c-1.7-1.764-1.919-4.541-1.764-7.283L195.746,228.109z"
					/>
			</g>
			<path style="fill:#263238;" d="M317.107,393.075c0,0-16.613-60.162-19.362-63.617c-4.49-5.646-47.501-11.618-47.501-11.618
				l-11.246-19.453l-40.62,5.692c0,0,2.998,28.573,7.965,35.931s70.449,6.125,74.805,7.557c4.356,1.431,20.802,48.387,20.802,48.387
				L317.107,393.075z"/>
			<g>
				<polygon style="opacity:0.4;fill:#FFFFFF;" points="211.086,303.454 198.38,305.043 198.862,308.898 212.413,307.298 				"/>
				<polygon style="opacity:0.4;fill:#FFFFFF;" points="213.022,303.103 214.364,306.988 240.537,302.84 238.908,299.352 				"/>
				<path style="fill:#FFFFFF;" d="M226.81,302.113l0.886,2.565c0.217,0.627,0.922,1.043,1.575,0.929l4.493-0.781
					c0.653-0.114,1.007-0.714,0.791-1.34l-0.886-2.565c-0.216-0.627-0.921-1.043-1.575-0.929l-4.493,0.781
					C226.948,300.887,226.594,301.487,226.81,302.113z"/>
			</g>
			<polygon style="opacity:0.2;enable-background:new    ;" points="250.245,317.84 235.58,316.186 248.678,315.129 			"/>
			<g>
				<path style="fill:#263238;" d="M210.8,212.658c2.167,1.921,0.429,5.031,0.826,7.161c0.397,2.131,1.171,4.868-2.004,2.314
					C206.446,219.579,207.471,210.043,210.8,212.658z"/>
				<path style="fill:#EEC1BB;" d="M213.937,232c0.1,2.8-1.11,4.66-3,5.67c-3.17,1.71-8.27,1.03-12.39-1.66
					c-4.37-2.85-3.6-4.2-5.56-11.21c-1.96-7.02,3.86-13.95,11.31-12.69c7,1.17,9.1,11.43,9.56,18.29
					C213.897,230.96,213.917,231.49,213.937,232z"/>
				<path style="fill:#263238;" d="M194.742,229.456c3.51,1.482,3.9-3.213,3.625-3.533c-1.199-1.398-1.337-2.714-0.597-5.821
					c0.74-3.107-5.645-5.651-9.745-3.761c-3.775,1.741,0.663,4.238,0.525,6.879C188.305,227.929,191.913,228.262,194.742,229.456z"
					/>
				<path style="fill:#EEC1BB;" d="M190.757,230.239c1.063,1.559,2.632,2.494,4.012,2.773c2.077,0.42,2.734-1.665,1.837-3.704
					c-0.807-1.835-2.861-4.265-4.792-3.762C189.912,226.041,189.541,228.456,190.757,230.239z"/>
				<path style="fill:#263238;" d="M202.183,222.492c0.153,0.602,0.441,0.596,0.834,0.492c0.393-0.104,0.742-0.266,0.589-0.867
					c-0.153-0.602-0.596-1.005-0.988-0.901C202.224,221.319,202.03,221.891,202.183,222.492z"/>
				<path style="fill:#263238;" d="M209.261,221.573c0.153,0.602,0.441,0.596,0.834,0.492c0.393-0.104,0.742-0.266,0.589-0.867
					c-0.153-0.602-0.595-1.005-0.988-0.902C209.303,220.4,209.109,220.972,209.261,221.573z"/>
				<path style="fill:#ED847E;" d="M208.057,222.534c0,0,1.577,2.49,2.996,3.56c-0.681,0.938-2.156,0.865-2.156,0.865
					L208.057,222.534z"/>
				<path style="fill:#263238;" d="M200.043,221.199c-0.061,0-0.122-0.016-0.178-0.048c-0.174-0.1-0.232-0.323-0.131-0.498
					c1.019-1.752,2.699-1.867,2.77-1.871c0.201-0.012,0.372,0.142,0.382,0.343c0.01,0.201-0.145,0.373-0.345,0.385l0,0
					c-0.055,0.004-1.365,0.108-2.177,1.506C200.295,221.134,200.17,221.2,200.043,221.199z"/>
				<path style="fill:#263238;" d="M211.451,219.031c-0.11,0.043-0.238,0.032-0.342-0.041c-1.309-0.926-2.538-0.461-2.59-0.441
					c-0.187,0.073-0.397-0.018-0.47-0.205c-0.072-0.187,0.019-0.398,0.205-0.474c0.068-0.026,1.636-0.639,3.276,0.521
					c0.164,0.116,0.202,0.344,0.086,0.509C211.573,218.962,211.515,219.006,211.451,219.031z"/>
				<path style="fill:#263238;" d="M203.111,215.055c0,0,5.758,1.613,7.471-3.46c1.713-5.073-5.117-6.951-5.117-6.951
					s1.075,1.523,0.476,3.288c0,0-1.586-3.267-5.958-1.514c-4.372,1.752-11.375,4.217-12.515,6.848
					c-0.996,2.298,0.223,3.954,0.223,3.954l7.652,0.71C195.342,217.929,197.557,212.923,203.111,215.055z"/>
				
					<path style="fill:none;stroke:#263238;stroke-width:0.72;stroke-linecap:round;stroke-linejoin:round;stroke-miterlimit:10;" d="
					M204.345,228.604c0,0,2.11,1.912,5.509,1.516"/>
			</g>
			<path style="opacity:0.2;fill:#FFFFFF;" d="M317.107,393.07l-15.15,2.88c0,0-16.45-46.95-20.81-48.38
				c-4.35-1.43-69.83-0.2-74.8-7.56c-4.97-7.36-7.97-35.93-7.97-35.93l40.62-5.69l3.32,5.74l1.86,3.21l6.07,10.5
				c0,0,43.01,5.97,47.5,11.62C300.496,332.91,317.107,393.07,317.107,393.07z"/>
			<path style="fill:#263238;" d="M219.775,315.129c0,0,47.166-18.07,60.021-13.059c12.855,5.011,53.442,50.311,53.442,50.311
				l-9.186,11.615c0,0-41.111-39.072-45.926-41.304s-53.1,22.043-53.1,22.043L219.775,315.129z"/>
			<path style="opacity:0.2;fill:#FFFFFF;" d="M219.775,315.129c0,0,47.166-18.07,60.021-13.059
				c12.855,5.011,53.442,50.311,53.442,50.311l-9.186,11.615c0,0-41.111-39.072-45.926-41.304s-53.1,22.043-53.1,22.043
				L219.775,315.129z"/>
			<polygon style="fill:#EEC1BB;" points="339.979,370.539 344.079,363.659 331.645,352.043 327.558,358.919 			"/>
			<polygon style="opacity:0.2;enable-background:new    ;" points="327.558,358.919 331.653,352.047 338.759,358.689 
				334.398,365.328 			"/>
			<g>
				<path style="fill:#407BFF;" d="M344.886,362.82c0.022,0,0.043,0.015,0.065,0.008c0.019-0.013,0.031-0.035,0.038-0.057
					c0.589-0.398,1.133-0.859,1.623-1.375c0.403-0.354,0.658-0.846,0.716-1.379c-0.021-0.384-0.262-0.723-0.618-0.869
					c-0.206-0.128-0.463-0.144-0.682-0.038c-0.504,0.255-0.84,1.149-1.054,1.977c-0.172-0.767-0.492-1.525-0.924-1.779
					c-0.285-0.164-0.637-0.128-0.865,0.108c-0.221,0.192-0.331,0.44-0.327,0.733c0.043,1.106,1.876,2.441,1.97,2.52
					c0.001,0,0.064-0.126,0.065-0.125c0.001,0,0.001,0.001,0.002,0.001c0.001,0-0.058,0.132-0.057,0.132
					c0.007,0.004-0.047,0.127-0.04,0.13C344.827,362.82,344.855,362.825,344.886,362.82z M344.754,362.088
					c-0.012,0.069-0.022,0.127-0.031,0.185c-0.574-0.496-1.475-1.395-1.493-2.053c-0.012-0.15,0.039-0.298,0.141-0.409l0.066-0.063
					c0.202-0.177,0.345-0.141,0.436-0.08C344.325,359.969,344.718,361.191,344.754,362.088z M345.136,362.245
					c0.185-1.086,0.58-2.522,1.083-2.774c0.107-0.053,0.234-0.046,0.334,0.019c0.221,0.098,0.374,0.305,0.403,0.544
					C346.975,360.563,346.304,361.372,345.136,362.245z"/>
			</g>
			<path style="fill:#263238;" d="M343.696,362.591l-6.023,6.663c-0.22,0.223-0.219,0.582,0.004,0.803
				c0.002,0.002,0.004,0.004,0.007,0.007l4.984,5.095c0.575,0.519,1.46,0.48,1.986-0.088c2.064-2.359,2.931-3.589,5.559-6.542
				c1.622-1.804,4.998-5.216,6.827-8.031c1.829-2.815-1.003-4.547-2.025-3.517c-2.437,2.434-7.227,4.412-10.053,4.898
				C344.473,361.968,344.027,362.219,343.696,362.591z"/>
			<polygon style="fill:#407BFF;" points="325.519,367.684 337.364,354.668 332.419,348.806 319.696,363.339 			"/>
			<polygon style="opacity:0.2;fill:#FFFFFF;" points="325.519,367.684 337.364,354.668 332.419,348.806 319.696,363.339 			"/>
			<g>
				<path style="fill:#407BFF;" d="M320.015,406.562c0.02,0.011,0.03,0.034,0.053,0.039c0.023-0.002,0.044-0.015,0.061-0.031
					c0.708-0.06,1.408-0.196,2.087-0.407c0.524-0.112,0.988-0.417,1.298-0.854c0.169-0.346,0.125-0.759-0.115-1.06
					c-0.117-0.213-0.334-0.352-0.576-0.366c-0.565-0.023-1.294,0.593-1.885,1.211c0.224-0.754,0.315-1.571,0.063-2.004
					c-0.169-0.282-0.493-0.423-0.808-0.328c-0.287,0.06-0.503,0.223-0.643,0.48c-0.502,0.986,0.445,3.046,0.489,3.161
					c0,0.001,0.117-0.078,0.118-0.078c0.001,0.001,0.001,0.001,0.001,0.002c0,0.001-0.115,0.087-0.115,0.087
					c0.004,0.007-0.103,0.087-0.098,0.094C319.963,406.533,319.986,406.552,320.015,406.562z M320.257,405.859
					c-0.044,0.054-0.081,0.101-0.117,0.146c-0.259-0.713-0.605-1.938-0.301-2.521c0.062-0.137,0.179-0.241,0.323-0.288l0.089-0.023
					c0.262-0.056,0.37,0.046,0.42,0.143C320.918,403.8,320.664,405.058,320.257,405.859z M320.513,406.182
					c0.692-0.857,1.738-1.918,2.299-1.892c0.12,0.006,0.227,0.074,0.282,0.18c0.145,0.193,0.177,0.448,0.086,0.672
					C322.941,405.612,321.96,405.991,320.513,406.182z"/>
			</g>
			<polygon style="fill:#EEC1BB;" points="311.964,410.902 318.9,406.897 313.373,390.071 306.45,394.079 			"/>
			<polygon style="opacity:0.2;enable-background:new    ;" points="306.45,394.079 313.377,390.079 316.534,399.698 
				309.481,403.352 			"/>
			<path style="fill:#263238;" d="M319.089,405.781l-8.51,2.874c-0.301,0.087-0.475,0.401-0.388,0.703
				c0.001,0.003,0.002,0.006,0.003,0.009l1.862,6.879c0.248,0.734,1.04,1.132,1.776,0.893c2.953-1.051,4.31-1.7,8.045-2.995
				c2.296-0.783,6.908-2.112,9.879-3.675c2.971-1.564,1.345-4.458-0.05-4.058c-3.315,0.934-8.461,0.321-11.165-0.635
				C320.07,405.617,319.559,405.618,319.089,405.781z"/>
			<polygon style="fill:#407BFF;" points="302.606,401.349 319.299,395.775 317.846,388.244 299.647,394.715 			"/>
			<polygon style="opacity:0.2;fill:#FFFFFF;" points="302.606,401.349 319.299,395.775 317.846,388.244 299.647,394.715 			"/>
			<path style="opacity:0.2;" d="M229.629,342.452c0,0,41.958-21.145,49.645-23.98c7.686-2.835,24.052,6.229,26.847,28.697
				l-3.365-3.687c0,0-3.917-12.271-5.01-14.025c-1.093-1.754-21.24-4.721-21.24-4.721S245.377,340.353,229.629,342.452z"/>
			<path style="opacity:0.2;" d="M244.176,307.34l-19.15,5.86c0,0,11.17-6.28,17.29-9.07L244.176,307.34z"/>
			<g>
				<path style="fill:#EBC0BB;" d="M189.637,262.168l-5.551,2.077c-1.851,0.725-3.702,1.438-5.52,2.183
					c-1.815,0.75-3.616,1.497-5.326,2.306c-1.695,0.792-3.393,1.642-4.628,2.461c-0.298,0.197-0.563,0.391-0.745,0.532
					c-0.175,0.12-0.273,0.251-0.12-0.012c0.054-0.091,0.066-0.143,0.148-0.32c0.035-0.083,0.046-0.139,0.083-0.25
					c0.04-0.116,0.07-0.236,0.091-0.356c0.125-0.535,0.109-1.382-0.179-2.129c-0.244-0.706-0.711-1.191-0.911-1.375
					c-0.262-0.222-0.368-0.266-0.425-0.286c0.665,0.434,1.563,0.972,2.359,1.464l2.531,1.476c3.416,1.966,7.003,3.92,10.476,6.025
					l-1.802,5.348c-4.269-0.575-8.334-1.571-12.417-2.907c-1.021-0.331-2.03-0.714-3.05-1.095c-1.048-0.402-1.978-0.787-3.116-1.327
					c-0.501-0.275-1.041-0.598-1.672-1.176c-0.589-0.519-1.341-1.447-1.778-2.624c-0.47-1.231-0.479-2.608-0.256-3.642
					c0.054-0.244,0.118-0.488,0.192-0.727c0.073-0.233,0.145-0.403,0.227-0.605c0.17-0.418,0.325-0.685,0.502-1.001
					c0.688-1.138,1.307-1.757,1.88-2.331c0.574-0.552,1.116-0.991,1.644-1.399c2.094-1.574,4.019-2.669,5.98-3.719
					c1.956-1.02,3.891-1.958,5.844-2.816c1.951-0.861,3.903-1.673,5.876-2.416c1.983-0.755,3.91-1.478,5.992-2.143L189.637,262.168z
					"/>
			</g>
			<path style="fill:#407BFF;" d="M200.986,314.25l-7.52,4.22c0,0-2.98-25.42-5.47-45.17c-0.34-2.73-0.67-5.36-0.99-7.79
				c-1.02-7.89-1.85-13.77-2.17-14.84l10.88-3.73C195.716,246.94,203.277,272.32,200.986,314.25z"/>
			<path style="fill:#407BFF;" d="M197.953,242.963c-1.454,3.048,0,8.323,0,8.323l-5.348,3.758c0,0-1.24-1.517-0.849-5.044
				C192.147,246.473,197.953,242.963,197.953,242.963z"/>
			<path style="opacity:0.5;fill:#FFFFFF;" d="M197.953,242.963c-1.454,3.048,0,8.323,0,8.323l-5.348,3.758
				c0,0-1.24-1.517-0.849-5.044C192.147,246.473,197.953,242.963,197.953,242.963z"/>
			<g>
				<path style="fill:#EEC1BB;" d="M181.833,275.711l6.305,4.282l-8.288,4.933c0,0-4.545-4.832-2.219-7.521L181.833,275.711z"/>
				<polygon style="fill:#EEC1BB;" points="190.055,285.94 183.014,289.7 179.851,284.926 188.139,279.993 				"/>
			</g>
			<path style="fill:#407BFF;" d="M216.64,242.504c0,0,7.023,6.474,14.042,25.202c5.769,15.392,3.989,32.477,11.936,36.94
				l-2.735-8.328c0,0-1.676-40.543-14.684-54.491L216.64,242.504z"/>
			<path style="fill:#407BFF;" d="M210.341,240.911c0,0,4.487,0.218,8.905,5.395l5.011,0.633
				C224.257,246.939,219.107,241.02,210.341,240.911z"/>
			<path style="opacity:0.5;fill:#FFFFFF;" d="M210.341,240.911c0,0,4.487,0.218,8.905,5.395l5.011,0.633
				C224.257,246.939,219.107,241.02,210.341,240.911z"/>
			<path style="opacity:0.2;" d="M187.996,273.3c-0.34-2.73-0.67-5.36-0.99-7.79c1.14-2.51,2.09-4.42,2.09-4.42
				S190.286,268.24,187.996,273.3z"/>
			<path style="fill:#407BFF;" d="M184.837,250.667c0,0-9.634,3.949-17.447,8.102l7.965,11.67l12.17-0.91
				C187.524,269.53,192.469,259.857,184.837,250.667z"/>
			<path style="opacity:0.1;" d="M213.937,232c0.1,2.8-1.11,4.66-3,5.67c-0.5-2.59-2.17-6.03-2.17-6.03l5.09-1.24
				C213.897,230.96,213.917,231.49,213.937,232z"/>
			<g>
				<path style="fill:#EEC1BB;" d="M224.146,230.941l-7.506-1.54l2.049,8.247c0,0,6.78,0.97,7.133-2.544L224.146,230.941z"/>
				<polygon style="fill:#EEC1BB;" points="209.498,231.966 213.667,238.459 218.69,237.648 216.64,229.401 				"/>
			</g>
		</g>
	</g>
</g>
<g id="Thought_Bubble">
	<g>
		<path style="fill:#407BFF;" d="M357.28,226.559c0-5.856-3.059-11.148-7.984-14.949c0.16-0.763,0.247-1.546,0.247-2.345
			c0-7.803-7.929-14.144-17.795-14.324c-2.982-7.542-11.926-13.018-22.497-13.018c-8.427,0-15.817,3.483-19.979,8.716
			c-1.035-0.144-2.098-0.223-3.185-0.223c-10.065,0-18.224,6.417-18.224,14.333c0,1.367,0.248,2.687,0.703,3.939
			c-6.411,3.367-10.636,9.108-10.636,15.626c0,6.279,3.922,11.833,9.94,15.243c-0.001,0.067-0.006,0.133-0.006,0.201
			c0,7.683,7.687,13.953,17.342,14.315c5.324,5.199,13.481,8.529,22.63,8.529c6.423,0,12.356-1.643,17.165-4.418
			c0.81,0.087,1.636,0.135,2.476,0.135c10.065,0,18.224-6.417,18.224-14.333c0-0.049-0.004-0.098-0.005-0.147
			C352.69,240.065,357.28,233.735,357.28,226.559z"/>
		<path style="fill:#407BFF;" d="M296.012,139.153c0-7.178-5.086-13.342-12.374-16.092c0.24-1.069,0.378-2.168,0.378-3.296
			c0-8.585-7.268-15.729-16.888-17.3c-6.572-8.828-18.016-14.678-31.046-14.678c-12.91,0-24.265,5.742-30.865,14.434
			c-10.583,0.855-18.861,8.381-18.861,17.544c0,1.691,0.298,3.321,0.825,4.869c-5.46,3.18-9.043,8.493-9.043,14.519
			c0,8.449,7.041,15.502,16.434,17.222c1.435,8.554,10.113,15.139,20.635,15.141c6.421,4.677,14.703,7.499,23.749,7.499
			c9.189,0,17.588-2.914,24.049-7.725c9.132-1.182,16.303-7.347,17.498-15.116C289.427,154.171,296.012,147.321,296.012,139.153z"/>
		<ellipse style="fill:#407BFF;" cx="222.59" cy="189.515" rx="10.154" ry="7.498"/>
		<path style="fill:#407BFF;" d="M214.833,203.135c0,1.309-1.518,2.37-3.391,2.37c-1.873,0-3.391-1.061-3.391-2.37
			c0-1.309,1.518-2.37,3.391-2.37C213.315,200.765,214.833,201.826,214.833,203.135z"/>
		<path style="fill:#407BFF;" d="M226.068,216.631c0,1.309-1.518,2.37-3.391,2.37c-1.873,0-3.391-1.061-3.391-2.37
			c0-1.309,1.518-2.37,3.391-2.37C224.55,214.261,226.068,215.322,226.068,216.631z"/>
		<path style="fill:#407BFF;" d="M252.546,214.999c0,3.789-4.409,6.86-9.848,6.86c-5.439,0-9.848-3.071-9.848-6.86
			s4.409-6.86,9.848-6.86C248.137,208.139,252.546,211.21,252.546,214.999z"/>
		<path style="opacity:0.7;fill:#FFFFFF;enable-background:new    ;" d="M357.28,226.559c0-5.856-3.059-11.148-7.984-14.949
			c0.16-0.763,0.247-1.546,0.247-2.345c0-7.803-7.929-14.144-17.795-14.324c-2.982-7.542-11.926-13.018-22.497-13.018
			c-8.427,0-15.817,3.483-19.979,8.716c-1.035-0.144-2.098-0.223-3.185-0.223c-10.065,0-18.224,6.417-18.224,14.333
			c0,1.367,0.248,2.687,0.703,3.939c-6.411,3.367-10.636,9.108-10.636,15.626c0,6.279,3.922,11.833,9.94,15.243
			c-0.001,0.067-0.006,0.133-0.006,0.201c0,7.683,7.687,13.953,17.342,14.315c5.324,5.199,13.481,8.529,22.63,8.529
			c6.423,0,12.356-1.643,17.165-4.418c0.81,0.087,1.636,0.135,2.476,0.135c10.065,0,18.224-6.417,18.224-14.333
			c0-0.049-0.004-0.098-0.005-0.147C352.69,240.065,357.28,233.735,357.28,226.559z"/>
		<path style="opacity:0.7;fill:#FFFFFF;enable-background:new    ;" d="M296.012,139.153c0-7.178-5.086-13.342-12.374-16.092
			c0.24-1.069,0.378-2.168,0.378-3.296c0-8.585-7.268-15.729-16.888-17.3c-6.572-8.828-18.016-14.678-31.046-14.678
			c-12.91,0-24.265,5.742-30.865,14.434c-10.583,0.855-18.861,8.381-18.861,17.544c0,1.691,0.298,3.321,0.825,4.869
			c-5.46,3.18-9.043,8.493-9.043,14.519c0,8.449,7.041,15.502,16.434,17.222c1.435,8.554,10.113,15.139,20.635,15.141
			c6.421,4.677,14.703,7.499,23.749,7.499c9.189,0,17.588-2.914,24.049-7.725c9.132-1.182,16.303-7.347,17.498-15.116
			C289.427,154.171,296.012,147.321,296.012,139.153z"/>
		<ellipse style="opacity:0.7;fill:#FFFFFF;enable-background:new    ;" cx="222.59" cy="189.515" rx="10.154" ry="7.498"/>
		<path style="opacity:0.7;fill:#FFFFFF;enable-background:new    ;" d="M214.833,203.135c0,1.309-1.518,2.37-3.391,2.37
			c-1.873,0-3.391-1.061-3.391-2.37c0-1.309,1.518-2.37,3.391-2.37C213.315,200.765,214.833,201.826,214.833,203.135z"/>
		<path style="opacity:0.7;fill:#FFFFFF;enable-background:new    ;" d="M226.068,216.631c0,1.309-1.518,2.37-3.391,2.37
			c-1.873,0-3.391-1.061-3.391-2.37c0-1.309,1.518-2.37,3.391-2.37C224.55,214.261,226.068,215.322,226.068,216.631z"/>
		<path style="opacity:0.7;fill:#FFFFFF;enable-background:new    ;" d="M252.546,214.999c0,3.789-4.409,6.86-9.848,6.86
			c-5.439,0-9.848-3.071-9.848-6.86s4.409-6.86,9.848-6.86C248.137,208.139,252.546,211.21,252.546,214.999z"/>
		<g>
			<g>
				<path style="fill:#263238;" d="M244.649,158.868c-0.14,2.734-4.004,4.759-8.631,4.522c-4.627-0.237-8.264-2.645-8.125-5.379
					c0.14-2.734,4.004-4.759,8.631-4.522C241.151,153.726,244.789,156.135,244.649,158.868z"/>
				<path style="fill:#263238;" d="M248.732,149.979c0.505-0.487,0.807-1.021,0.837-1.594c0.137-2.684-5.46-5.153-12.502-5.513
					c-7.042-0.36-12.861,1.524-12.999,4.208c-0.029,0.574,0.217,1.136,0.669,1.671c-0.15,0.271-0.244,0.553-0.259,0.846
					c-0.029,0.568,0.223,1.123,0.685,1.651c-0.164,0.276-0.259,0.566-0.275,0.866c-0.029,0.564,0.23,1.116,0.707,1.638
					c-0.176,0.28-0.281,0.573-0.296,0.879c-0.029,0.561,0.237,1.111,0.731,1.629c-0.189,0.282-0.305,0.578-0.321,0.888
					c-0.114,2.232,4.539,4.284,10.393,4.584c5.854,0.3,10.693-1.267,10.807-3.499c0.016-0.311-0.069-0.617-0.229-0.917
					c0.544-0.464,0.865-0.984,0.893-1.546c0.016-0.306-0.058-0.609-0.205-0.905c0.527-0.471,0.841-0.994,0.87-1.558
					c0.015-0.301-0.05-0.598-0.185-0.89c0.514-0.478,0.821-1.005,0.85-1.573C248.919,150.554,248.854,150.264,248.732,149.979z"/>
				<path style="opacity:0.3;fill:#FFFFFF;" d="M248.732,149.979c0.505-0.487,0.807-1.021,0.837-1.594
					c0.137-2.684-5.46-5.153-12.502-5.513c-7.042-0.36-12.861,1.524-12.999,4.208c-0.029,0.574,0.217,1.136,0.669,1.671
					c-0.15,0.271-0.244,0.553-0.259,0.846c-0.029,0.568,0.223,1.123,0.685,1.651c-0.164,0.276-0.259,0.566-0.275,0.866
					c-0.029,0.564,0.23,1.116,0.707,1.638c-0.176,0.28-0.281,0.573-0.296,0.879c-0.029,0.561,0.237,1.111,0.731,1.629
					c-0.189,0.282-0.305,0.578-0.321,0.888c-0.114,2.232,4.539,4.284,10.393,4.584c5.854,0.3,10.693-1.267,10.807-3.499
					c0.016-0.311-0.069-0.617-0.229-0.917c0.544-0.464,0.865-0.984,0.893-1.546c0.016-0.306-0.058-0.609-0.205-0.905
					c0.527-0.471,0.841-0.994,0.87-1.558c0.015-0.301-0.05-0.598-0.185-0.89c0.514-0.478,0.821-1.005,0.85-1.573
					C248.919,150.554,248.854,150.264,248.732,149.979z"/>
				<path style="fill:#407BFF;" d="M260.518,126.692c0.665-12.991-9.78-23.979-23.012-23.744
					c-11.416,0.203-21.005,9.133-22.048,20.503c-0.678,7.39,2.257,14.207,7.297,18.795c0.915,0.833,1.387,2.052,1.204,3.275
					c-0.009,0.06-0.015,0.12-0.018,0.18c-0.139,2.726,5.544,5.233,12.695,5.598c7.151,0.366,13.061-1.547,13.2-4.273
					c0.003-0.059,0.003-0.117,0.001-0.176c-0.055-1.25,0.557-2.417,1.562-3.162C256.634,139.808,260.159,133.708,260.518,126.692z"
					/>
				<path style="opacity:0.3;fill:#FFFFFF;" d="M260.518,126.692c0.665-12.991-9.78-23.979-23.012-23.744
					c-11.416,0.203-21.005,9.133-22.048,20.503c-0.678,7.39,2.257,14.207,7.297,18.795c0.915,0.833,1.387,2.052,1.204,3.275
					c-0.009,0.06-0.015,0.12-0.018,0.18c-0.139,2.726,5.544,5.233,12.695,5.598c7.151,0.366,13.061-1.547,13.2-4.273
					c0.003-0.059,0.003-0.117,0.001-0.176c-0.055-1.25,0.557-2.417,1.562-3.162C256.634,139.808,260.159,133.708,260.518,126.692z"
					/>
				
					<path style="fill:none;stroke:#263238;stroke-width:0.5422;stroke-linecap:round;stroke-linejoin:round;stroke-miterlimit:10;" d="
					M240.766,147.543c0,0,2.138-10.998,8.021-14.041l-4.247-0.217l-1.195-3.262l-3.102,5.712l-2.503-5.999l-3.067,5.017
					l-2.539-5.304l-1.522,3.123l-4.247-0.217c0,0,6.253,6.508,5.832,14.749"/>
			</g>
			<path style="opacity:0.4;fill:#FFFFFF;" d="M245.166,109.769c1.973,4.558-1.72,10.545-8.25,13.372
				c-6.53,2.827-13.423,1.423-15.396-3.136c-1.973-4.559,1.72-10.545,8.25-13.372C236.299,103.807,243.192,105.21,245.166,109.769z"
				/>
			<path style="opacity:0.4;fill:#FFFFFF;" d="M243.015,126.1c0.792,1.83-0.691,4.234-3.312,5.368s-5.389,0.571-6.181-1.259
				c-0.792-1.83,0.691-4.234,3.312-5.368C239.456,123.706,242.223,124.27,243.015,126.1z"/>
		</g>
		<g>
			<path style="fill:#407BFF;" d="M314.057,218.88c0.192-2.672-1.968-4.649-5.642-4.913c-3.531-0.253-6.203,0.898-8.041,3.116
				l-4.413-3.338c2.932-3.434,7.384-5.321,13.348-4.893c7.014,0.503,11.461,4.036,11.067,9.523
				c-0.558,7.777-8.769,7.908-9.172,13.538l-6.06-0.435C305.651,224.416,313.715,223.651,314.057,218.88z M303.83,239.105
				c0.148-2.052,1.838-3.561,4.081-3.399c2.195,0.157,3.654,1.893,3.506,3.943c-0.147,2.053-1.842,3.609-4.037,3.452
				C305.137,242.939,303.683,241.156,303.83,239.105z"/>
		</g>
		<path style="fill:#407BFF;" d="M180.139,191.91c0,2.741-3.009,4.963-6.721,4.963c-3.712,0-6.721-2.222-6.721-4.963
			c0-2.741,3.009-4.963,6.721-4.963C177.13,186.947,180.139,189.169,180.139,191.91z"/>
		<path style="fill:#407BFF;" d="M189.124,200.993c0,1.309-1.518,2.37-3.391,2.37s-3.391-1.061-3.391-2.37
			c0-1.309,1.518-2.37,3.391-2.37S189.124,199.684,189.124,200.993z"/>
		<path style="opacity:0.7;fill:#FFFFFF;enable-background:new    ;" d="M180.139,191.91c0,2.741-3.009,4.963-6.721,4.963
			c-3.712,0-6.721-2.222-6.721-4.963c0-2.741,3.009-4.963,6.721-4.963C177.13,186.947,180.139,189.169,180.139,191.91z"/>
		<path style="opacity:0.7;fill:#FFFFFF;enable-background:new    ;" d="M189.124,200.993c0,1.309-1.518,2.37-3.391,2.37
			s-3.391-1.061-3.391-2.37c0-1.309,1.518-2.37,3.391-2.37S189.124,199.684,189.124,200.993z"/>
		<path style="fill:#407BFF;" d="M167.753,173.253c-0.341-3.285-2.365-6.076-5.35-7.921c0.045-0.438,0.049-0.882,0.002-1.33
			c-0.454-4.377-5.271-7.473-10.817-7c-2.112-4.057-7.448-6.609-13.378-5.993c-4.728,0.491-8.67,2.875-10.701,6.053
			c-0.589-0.02-1.19-0.003-1.8,0.061c-5.646,0.586-9.85,4.661-9.389,9.102c0.08,0.767,0.296,1.493,0.624,2.169
			c-3.401,2.262-5.436,5.729-5.057,9.386c0.366,3.522,2.889,6.41,6.464,7.973c0.003,0.038,0.004,0.075,0.008,0.113
			c0.447,4.31,5.125,7.38,10.562,7.021c3.29,2.607,8.059,4,13.192,3.467c3.603-0.374,6.836-1.641,9.372-3.478
			c0.46,0.001,0.926-0.019,1.397-0.068c5.646-0.586,9.85-4.661,9.389-9.102c-0.003-0.028-0.008-0.055-0.011-0.082
			C165.964,181.097,168.171,177.279,167.753,173.253z"/>
		<path style="opacity:0.7;fill:#FFFFFF;enable-background:new    ;" d="M167.753,173.253c-0.341-3.285-2.365-6.076-5.35-7.921
			c0.045-0.438,0.049-0.882,0.002-1.33c-0.454-4.377-5.271-7.473-10.817-7c-2.112-4.057-7.448-6.609-13.378-5.993
			c-4.728,0.491-8.67,2.875-10.701,6.053c-0.589-0.02-1.19-0.003-1.8,0.061c-5.646,0.586-9.85,4.661-9.389,9.102
			c0.08,0.767,0.296,1.493,0.624,2.169c-3.401,2.262-5.436,5.729-5.057,9.386c0.366,3.522,2.889,6.41,6.464,7.973
			c0.003,0.038,0.004,0.075,0.008,0.113c0.447,4.31,5.125,7.38,10.562,7.021c3.29,2.607,8.059,4,13.192,3.467
			c3.603-0.374,6.836-1.641,9.372-3.478c0.46,0.001,0.926-0.019,1.397-0.068c5.646-0.586,9.85-4.661,9.389-9.102
			c-0.003-0.028-0.008-0.055-0.011-0.082C165.964,181.097,168.171,177.279,167.753,173.253z"/>
		<g>
			<path style="fill:#407BFF;" d="M144.674,182.588l1.441,1.193l2.55-2.55l-1.193-1.441c0.655-0.998,1.134-2.122,1.385-3.331
				l1.857-0.175v-3.606l-1.857-0.175c-0.251-1.209-0.73-2.333-1.385-3.331l1.193-1.441l-2.55-2.55l-1.441,1.193
				c-0.998-0.655-2.122-1.134-3.331-1.385l-0.175-1.857l-3.606,0.001l-0.175,1.856c-1.209,0.251-2.333,0.73-3.331,1.385
				l-1.441-1.193l-2.55,2.55l1.193,1.441c-0.655,0.998-1.134,2.122-1.385,3.331l-1.857,0.175v3.606l1.857,0.175
				c0.251,1.209,0.73,2.333,1.385,3.331l-1.193,1.441l2.55,2.55l1.441-1.193c0.998,0.655,2.122,1.134,3.331,1.385l0.175,1.857h3.606
				l0.175-1.857C142.552,183.722,143.676,183.243,144.674,182.588z M134.483,174.48c0-2.696,2.186-4.882,4.882-4.882
				c2.696,0,4.882,2.186,4.882,4.882c0,2.696-2.186,4.882-4.882,4.882C136.669,179.363,134.483,177.177,134.483,174.48z"/>
		</g>
	</g>
</g>
<g id="Plant">
	<g>
		<path style="fill:#407BFF;" d="M98.751,386.055c0,0,6.126-13.366-0.873-26.543c-7-13.176-9.028-16.28-4.566-18.98
			c4.462-2.7,6.509,10.541,6.509,10.541s3.761-9.109,0.656-18.641c-3.106-9.533-5.053-25.059-0.812-26.725
			c4.241-1.665,0.81,19.369,4.49,26.539c0,0,3.091-7.982,3.6-15.638c0.508-7.657-0.286-19.883,3.063-23.019
			c3.349-3.136,5.495-0.966,2.203,15.93c-3.291,16.897-3.267,30.632-3.267,30.632s7.269-22.165,12.148-22.811
			c4.879-0.646,4.873,6.531,0.696,12.758c-4.176,6.226-12.23,17.379-13.551,23.118c0,0,7.979-16.68,15.157-11.568
			c7.178,5.112-6.248,15.187-12.231,18.828c-5.984,3.64-10.139,26.461-10.139,26.461L98.751,386.055z"/>
		<path style="opacity:0.2;enable-background:new    ;" d="M98.751,386.055c0,0,6.126-13.366-0.873-26.543
			c-7-13.176-9.028-16.28-4.566-18.98c4.462-2.7,6.509,10.541,6.509,10.541s3.761-9.109,0.656-18.641
			c-3.106-9.533-5.053-25.059-0.812-26.725c4.241-1.665,0.81,19.369,4.49,26.539c0,0,3.091-7.982,3.6-15.638
			c0.508-7.657-0.286-19.883,3.063-23.019c3.349-3.136,5.495-0.966,2.203,15.93c-3.291,16.897-3.267,30.632-3.267,30.632
			s7.269-22.165,12.148-22.811c4.879-0.646,4.873,6.531,0.696,12.758c-4.176,6.226-12.23,17.379-13.551,23.118
			c0,0,7.979-16.68,15.157-11.568c7.178,5.112-6.248,15.187-12.231,18.828c-5.984,3.64-10.139,26.461-10.139,26.461L98.751,386.055z
			"/>
		<path style="fill:#407BFF;" d="M103.587,391.536c0,0-5.965-13.456,1.192-26.527c7.157-13.071,9.223-16.144,4.794-18.91
			s-6.635,10.443-6.635,10.443s-3.652-9.164-0.432-18.65c3.22-9.486,5.353-24.981,1.132-26.71
			c-4.221-1.729-1.042,19.355-4.808,26.47c0,0-2.995-8.027-3.412-15.691c-0.417-7.664,0.524-19.877-2.787-23.062
			c-3.311-3.186-5.483-1.048-2.394,15.896c3.088,16.944,2.899,30.678,2.899,30.678s-7.003-22.271-11.874-22.99
			c-4.871-0.719-4.951,6.458-0.849,12.746c4.101,6.288,12.02,17.56,13.272,23.318c0,0-7.779-16.797-15.017-11.793
			c-7.238,5.005,6.065,15.279,12.004,19.009c5.94,3.729,9.821,26.609,9.821,26.609L103.587,391.536z"/>
		<g>
			<polygon style="fill:#263238;" points="76.074,381.944 125.353,381.944 121.364,417.208 80.062,417.208 			"/>
		</g>
	</g>
</g>
</svg>
